<svg xmlns="http://www.w3.org/2000/svg" xmlns:xlink="http://www.w3.org/1999/xlink" width="1920" zoomAndPan="magnify" viewBox="0 0 1440 389.999986" height="520" preserveAspectRatio="xMidYMid meet" version="1.0"><defs><g/></defs><g fill="#ffffff" fill-opacity="1"><g transform="translate(512.742418, 152.44222)"><g><path d="M 8.390625 -23.71875 L 11.171875 -23.71875 L 11.171875 -6.09375 C 11.171875 -3.875 10.820312 -2.253906 10.125 -1.234375 C 9.425781 -0.222656 8.21875 0.28125 6.5 0.28125 C 4.789062 0.28125 3.582031 -0.222656 2.875 -1.234375 C 2.164062 -2.253906 1.8125 -3.875 1.8125 -6.09375 L 1.8125 -23.71875 L 4.59375 -23.71875 L 4.59375 -6.15625 C 4.59375 -4.570312 4.65625 -3.625 4.78125 -3.3125 C 4.914062 -3.007812 5.054688 -2.769531 5.203125 -2.59375 C 5.453125 -2.25 5.882812 -2.078125 6.5 -2.078125 C 7.125 -2.078125 7.582031 -2.265625 7.875 -2.640625 C 8.175781 -3.015625 8.335938 -3.570312 8.359375 -4.3125 C 8.378906 -5.0625 8.390625 -5.671875 8.390625 -6.140625 Z M 8.390625 -23.71875 "/></g></g></g><g fill="#ffffff" fill-opacity="1"><g transform="translate(532.427115, 152.44222)"><g><path d="M 9.25 -23.71875 L 11.71875 -23.71875 L 11.71875 0 L 9.671875 0 L 4.359375 -16.28125 L 4.515625 -10.296875 L 4.515625 0 L 1.9375 0 L 1.9375 -23.71875 L 4.046875 -23.71875 L 9.546875 -7.578125 L 9.25 -14.4375 Z M 9.25 -23.71875 "/></g></g></g><g fill="#ffffff" fill-opacity="1"><g transform="translate(552.799013, 152.44222)"><g><path d="M 2.15625 -23.71875 L 4.9375 -23.71875 L 4.9375 0 L 2.15625 0 Z M 2.15625 -23.71875 "/></g></g></g><g fill="#ffffff" fill-opacity="1"><g transform="translate(566.608772, 152.44222)"><g><path d="M 8.96875 -23.71875 L 11.59375 -23.71875 L 8 0 L 4.75 0 L 0.8125 -23.71875 L 3.46875 -23.71875 L 5.046875 -13.671875 L 6.390625 -4.84375 L 6.4375 -4.84375 L 7.609375 -13.671875 Z M 8.96875 -23.71875 "/></g></g></g><g fill="#ffffff" fill-opacity="1"><g transform="translate(585.727532, 152.44222)"><g><path d="M 1.9375 -23.71875 L 9.03125 -23.71875 L 9.03125 -21.390625 L 4.734375 -21.390625 L 4.734375 -13.28125 L 8.796875 -13.28125 L 8.796875 -10.96875 L 4.734375 -10.96875 L 4.734375 -2.3125 L 9.078125 -2.3125 L 9.078125 0 L 1.9375 0 Z M 1.9375 -23.71875 "/></g></g></g><g fill="#ffffff" fill-opacity="1"><g transform="translate(602.825097, 152.44222)"><g><path d="M 1.9375 -23.71875 L 6.90625 -23.71875 C 8.320312 -23.71875 9.335938 -23.425781 9.953125 -22.84375 C 10.578125 -22.257812 10.953125 -21.265625 11.078125 -19.859375 C 11.128906 -19.285156 11.15625 -18.390625 11.15625 -17.171875 C 11.15625 -15.953125 10.992188 -14.929688 10.671875 -14.109375 C 10.359375 -13.285156 9.796875 -12.75 8.984375 -12.5 C 9.578125 -12.40625 10.023438 -12.09375 10.328125 -11.5625 C 10.640625 -11.039062 10.859375 -10.207031 10.984375 -9.0625 C 11.109375 -7.914062 11.171875 -6.210938 11.171875 -3.953125 C 11.171875 -1.691406 11.242188 -0.375 11.390625 0 L 8.609375 0 C 8.460938 -0.289062 8.390625 -2.953125 8.390625 -7.984375 C 8.390625 -9.679688 8.222656 -10.664062 7.890625 -10.9375 C 7.554688 -11.21875 7.054688 -11.359375 6.390625 -11.359375 L 4.734375 -11.453125 L 4.734375 0 L 1.9375 0 Z M 8.390625 -17.90625 C 8.390625 -19.726562 8.222656 -20.78125 7.890625 -21.0625 C 7.566406 -21.351562 7.097656 -21.5 6.484375 -21.5 L 4.734375 -21.5 L 4.734375 -13.5 L 6.5 -13.5 C 7.039062 -13.5 7.4375 -13.601562 7.6875 -13.8125 C 7.945312 -14.019531 8.128906 -14.414062 8.234375 -15 C 8.335938 -15.582031 8.390625 -16.5 8.390625 -17.75 Z M 8.390625 -17.90625 "/></g></g></g><g fill="#ffffff" fill-opacity="1"><g transform="translate(622.375044, 152.44222)"><g><path d="M 1.671875 -16.375 C 1.503906 -16.9375 1.421875 -17.613281 1.421875 -18.40625 C 1.421875 -20.125 1.738281 -21.488281 2.375 -22.5 C 3.007812 -23.507812 4.222656 -24.015625 6.015625 -24.015625 C 8.304688 -24.015625 9.660156 -22.910156 10.078125 -20.703125 C 10.253906 -19.742188 10.34375 -18.539062 10.34375 -17.09375 L 10.34375 -15.703125 L 7.6875 -15.703125 L 7.6875 -17.28125 C 7.6875 -18.789062 7.609375 -19.804688 7.453125 -20.328125 C 7.296875 -20.847656 7.101562 -21.191406 6.875 -21.359375 C 6.65625 -21.535156 6.367188 -21.625 6.015625 -21.625 C 5.335938 -21.625 4.847656 -21.375 4.546875 -20.875 C 4.253906 -20.382812 4.109375 -19.65625 4.109375 -18.6875 C 4.109375 -17.71875 4.242188 -17.007812 4.515625 -16.5625 C 4.785156 -16.113281 5.117188 -15.679688 5.515625 -15.265625 C 5.910156 -14.859375 6.128906 -14.628906 6.171875 -14.578125 L 7.78125 -12.875 C 9.726562 -10.84375 10.703125 -8.566406 10.703125 -6.046875 C 10.703125 -4.003906 10.382812 -2.441406 9.75 -1.359375 C 9.113281 -0.273438 7.90625 0.265625 6.125 0.265625 C 3.976562 0.265625 2.617188 -0.675781 2.046875 -2.5625 C 1.710938 -3.625 1.546875 -5.007812 1.546875 -6.71875 C 1.546875 -6.769531 1.546875 -6.816406 1.546875 -6.859375 L 1.546875 -9.15625 L 4.25 -9.15625 L 4.25 -6.75 C 4.25 -5.019531 4.375 -3.8125 4.625 -3.125 C 4.882812 -2.445312 5.351562 -2.109375 6.03125 -2.109375 C 6.71875 -2.109375 7.191406 -2.269531 7.453125 -2.59375 C 7.710938 -2.914062 7.863281 -3.40625 7.90625 -4.0625 C 7.945312 -4.71875 7.96875 -5.453125 7.96875 -6.265625 C 7.96875 -7.910156 7.242188 -9.457031 5.796875 -10.90625 L 4.25 -12.453125 C 2.863281 -13.867188 2.003906 -15.175781 1.671875 -16.375 Z M 1.671875 -16.375 "/></g></g></g><g fill="#ffffff" fill-opacity="1"><g transform="translate(640.833542, 152.44222)"><g><path d="M 2.15625 -23.71875 L 4.9375 -23.71875 L 4.9375 0 L 2.15625 0 Z M 2.15625 -23.71875 "/></g></g></g><g fill="#ffffff" fill-opacity="1"><g transform="translate(654.643296, 152.44222)"><g><path d="M 1.921875 -23.71875 L 6.390625 -23.71875 C 8.203125 -23.71875 9.445312 -23.15625 10.125 -22.03125 C 10.8125 -20.914062 11.15625 -19.328125 11.15625 -17.265625 L 11.171875 -6.859375 C 11.171875 -4.421875 10.796875 -2.664062 10.046875 -1.59375 C 9.304688 -0.53125 8.054688 0 6.296875 0 L 1.921875 0 Z M 8.375 -17.34375 C 8.375 -18.820312 8.195312 -19.882812 7.84375 -20.53125 C 7.5 -21.175781 6.925781 -21.5 6.125 -21.5 L 4.703125 -21.5 L 4.703125 -2.25 L 6.125 -2.25 C 6.664062 -2.25 7.085938 -2.359375 7.390625 -2.578125 C 8.046875 -3.046875 8.375 -4.328125 8.375 -6.421875 Z M 8.375 -17.34375 "/></g></g></g><g fill="#ffffff" fill-opacity="1"><g transform="translate(674.139345, 152.44222)"><g><path d="M 4.484375 -23.71875 L 7.84375 -23.71875 L 11.765625 0 L 9.140625 0 L 8.46875 -4.53125 L 4.15625 -4.53125 L 3.546875 0 L 0.890625 0 Z M 4.46875 -6.796875 L 8.109375 -6.796875 L 6.234375 -19.328125 L 6.203125 -19.328125 Z M 4.46875 -6.796875 "/></g></g></g><g fill="#ffffff" fill-opacity="1"><g transform="translate(693.500659, 152.44222)"><g><path d="M 1.921875 -23.71875 L 6.390625 -23.71875 C 8.203125 -23.71875 9.445312 -23.15625 10.125 -22.03125 C 10.8125 -20.914062 11.15625 -19.328125 11.15625 -17.265625 L 11.171875 -6.859375 C 11.171875 -4.421875 10.796875 -2.664062 10.046875 -1.59375 C 9.304688 -0.53125 8.054688 0 6.296875 0 L 1.921875 0 Z M 8.375 -17.34375 C 8.375 -18.820312 8.195312 -19.882812 7.84375 -20.53125 C 7.5 -21.175781 6.925781 -21.5 6.125 -21.5 L 4.703125 -21.5 L 4.703125 -2.25 L 6.125 -2.25 C 6.664062 -2.25 7.085938 -2.359375 7.390625 -2.578125 C 8.046875 -3.046875 8.375 -4.328125 8.375 -6.421875 Z M 8.375 -17.34375 "/></g></g></g><g fill="#ffffff" fill-opacity="1"><g transform="translate(712.996718, 152.44222)"><g><path d="M 1.9375 -23.71875 L 9.03125 -23.71875 L 9.03125 -21.390625 L 4.734375 -21.390625 L 4.734375 -13.28125 L 8.796875 -13.28125 L 8.796875 -10.96875 L 4.734375 -10.96875 L 4.734375 -2.3125 L 9.078125 -2.3125 L 9.078125 0 L 1.9375 0 Z M 1.9375 -23.71875 "/></g></g></g><g fill="#ffffff" fill-opacity="1"><g transform="translate(730.094283, 152.44222)"><g/></g></g><g fill="#ffffff" fill-opacity="1"><g transform="translate(743.580646, 152.44222)"><g><path d="M 1.921875 -23.71875 L 9.0625 -23.71875 L 9.0625 -21.375 L 4.703125 -21.375 L 4.703125 -13.890625 L 8.796875 -13.890625 L 8.796875 -11.53125 L 4.703125 -11.53125 L 4.703125 0 L 1.921875 0 Z M 1.921875 -23.71875 "/></g></g></g><g fill="#ffffff" fill-opacity="1"><g transform="translate(760.34135, 152.44222)"><g><path d="M 1.9375 -23.71875 L 9.03125 -23.71875 L 9.03125 -21.390625 L 4.734375 -21.390625 L 4.734375 -13.28125 L 8.796875 -13.28125 L 8.796875 -10.96875 L 4.734375 -10.96875 L 4.734375 -2.3125 L 9.078125 -2.3125 L 9.078125 0 L 1.9375 0 Z M 1.9375 -23.71875 "/></g></g></g><g fill="#ffffff" fill-opacity="1"><g transform="translate(777.438915, 152.44222)"><g><path d="M 1.921875 -23.71875 L 6.390625 -23.71875 C 8.203125 -23.71875 9.445312 -23.15625 10.125 -22.03125 C 10.8125 -20.914062 11.15625 -19.328125 11.15625 -17.265625 L 11.171875 -6.859375 C 11.171875 -4.421875 10.796875 -2.664062 10.046875 -1.59375 C 9.304688 -0.53125 8.054688 0 6.296875 0 L 1.921875 0 Z M 8.375 -17.34375 C 8.375 -18.820312 8.195312 -19.882812 7.84375 -20.53125 C 7.5 -21.175781 6.925781 -21.5 6.125 -21.5 L 4.703125 -21.5 L 4.703125 -2.25 L 6.125 -2.25 C 6.664062 -2.25 7.085938 -2.359375 7.390625 -2.578125 C 8.046875 -3.046875 8.375 -4.328125 8.375 -6.421875 Z M 8.375 -17.34375 "/></g></g></g><g fill="#ffffff" fill-opacity="1"><g transform="translate(796.934975, 152.44222)"><g><path d="M 1.9375 -23.71875 L 9.03125 -23.71875 L 9.03125 -21.390625 L 4.734375 -21.390625 L 4.734375 -13.28125 L 8.796875 -13.28125 L 8.796875 -10.96875 L 4.734375 -10.96875 L 4.734375 -2.3125 L 9.078125 -2.3125 L 9.078125 0 L 1.9375 0 Z M 1.9375 -23.71875 "/></g></g></g><g fill="#ffffff" fill-opacity="1"><g transform="translate(814.032539, 152.44222)"><g><path d="M 1.9375 -23.71875 L 6.90625 -23.71875 C 8.320312 -23.71875 9.335938 -23.425781 9.953125 -22.84375 C 10.578125 -22.257812 10.953125 -21.265625 11.078125 -19.859375 C 11.128906 -19.285156 11.15625 -18.390625 11.15625 -17.171875 C 11.15625 -15.953125 10.992188 -14.929688 10.671875 -14.109375 C 10.359375 -13.285156 9.796875 -12.75 8.984375 -12.5 C 9.578125 -12.40625 10.023438 -12.09375 10.328125 -11.5625 C 10.640625 -11.039062 10.859375 -10.207031 10.984375 -9.0625 C 11.109375 -7.914062 11.171875 -6.210938 11.171875 -3.953125 C 11.171875 -1.691406 11.242188 -0.375 11.390625 0 L 8.609375 0 C 8.460938 -0.289062 8.390625 -2.953125 8.390625 -7.984375 C 8.390625 -9.679688 8.222656 -10.664062 7.890625 -10.9375 C 7.554688 -11.21875 7.054688 -11.359375 6.390625 -11.359375 L 4.734375 -11.453125 L 4.734375 0 L 1.9375 0 Z M 8.390625 -17.90625 C 8.390625 -19.726562 8.222656 -20.78125 7.890625 -21.0625 C 7.566406 -21.351562 7.097656 -21.5 6.484375 -21.5 L 4.734375 -21.5 L 4.734375 -13.5 L 6.5 -13.5 C 7.039062 -13.5 7.4375 -13.601562 7.6875 -13.8125 C 7.945312 -14.019531 8.128906 -14.414062 8.234375 -15 C 8.335938 -15.582031 8.390625 -16.5 8.390625 -17.75 Z M 8.390625 -17.90625 "/></g></g></g><g fill="#ffffff" fill-opacity="1"><g transform="translate(833.582498, 152.44222)"><g><path d="M 4.484375 -23.71875 L 7.84375 -23.71875 L 11.765625 0 L 9.140625 0 L 8.46875 -4.53125 L 4.15625 -4.53125 L 3.546875 0 L 0.890625 0 Z M 4.46875 -6.796875 L 8.109375 -6.796875 L 6.234375 -19.328125 L 6.203125 -19.328125 Z M 4.46875 -6.796875 "/></g></g></g><g fill="#ffffff" fill-opacity="1"><g transform="translate(852.9438, 152.44222)"><g><path d="M 1.9375 -23.71875 L 4.734375 -23.71875 L 4.734375 -2.296875 L 9.109375 -2.296875 L 9.109375 0 L 1.9375 0 Z M 1.9375 -23.71875 "/></g></g></g><g fill="#ffffff" fill-opacity="1"><g transform="translate(869.246357, 152.44222)"><g/></g></g><g fill="#ffffff" fill-opacity="1"><g transform="translate(882.73272, 152.44222)"><g><path d="M 1.921875 -23.71875 L 6.390625 -23.71875 C 8.203125 -23.71875 9.445312 -23.15625 10.125 -22.03125 C 10.8125 -20.914062 11.15625 -19.328125 11.15625 -17.265625 L 11.171875 -6.859375 C 11.171875 -4.421875 10.796875 -2.664062 10.046875 -1.59375 C 9.304688 -0.53125 8.054688 0 6.296875 0 L 1.921875 0 Z M 8.375 -17.34375 C 8.375 -18.820312 8.195312 -19.882812 7.84375 -20.53125 C 7.5 -21.175781 6.925781 -21.5 6.125 -21.5 L 4.703125 -21.5 L 4.703125 -2.25 L 6.125 -2.25 C 6.664062 -2.25 7.085938 -2.359375 7.390625 -2.578125 C 8.046875 -3.046875 8.375 -4.328125 8.375 -6.421875 Z M 8.375 -17.34375 "/></g></g></g><g fill="#ffffff" fill-opacity="1"><g transform="translate(902.228779, 152.44222)"><g><path d="M 4.484375 -23.71875 L 7.84375 -23.71875 L 11.765625 0 L 9.140625 0 L 8.46875 -4.53125 L 4.15625 -4.53125 L 3.546875 0 L 0.890625 0 Z M 4.46875 -6.796875 L 8.109375 -6.796875 L 6.234375 -19.328125 L 6.203125 -19.328125 Z M 4.46875 -6.796875 "/></g></g></g><g fill="#ffffff" fill-opacity="1"><g transform="translate(921.590103, 152.44222)"><g/></g></g><g fill="#ffffff" fill-opacity="1"><g transform="translate(935.076466, 152.44222)"><g><path d="M 1.9375 -23.71875 L 6.703125 -23.71875 C 8.804688 -23.71875 10.128906 -22.84375 10.671875 -21.09375 C 11.015625 -20 11.1875 -18.71875 11.1875 -17.25 C 11.1875 -15.789062 11.144531 -14.691406 11.0625 -13.953125 C 10.882812 -12.335938 10.457031 -11.160156 9.78125 -10.421875 C 9.101562 -9.679688 8.078125 -9.3125 6.703125 -9.3125 L 4.734375 -9.3125 L 4.734375 0 L 1.9375 0 Z M 8.390625 -17.015625 C 8.390625 -18.640625 8.257812 -19.789062 8 -20.46875 C 7.75 -21.15625 7.25 -21.5 6.5 -21.5 L 4.734375 -21.5 L 4.734375 -11.625 L 6.421875 -11.625 C 7.210938 -11.625 7.738281 -11.96875 8 -12.65625 C 8.257812 -13.351562 8.390625 -14.65625 8.390625 -16.5625 Z M 8.390625 -17.015625 "/></g></g></g><g fill="#ffffff" fill-opacity="1"><g transform="translate(953.777518, 152.44222)"><g><path d="M 4.484375 -23.71875 L 7.84375 -23.71875 L 11.765625 0 L 9.140625 0 L 8.46875 -4.53125 L 4.15625 -4.53125 L 3.546875 0 L 0.890625 0 Z M 4.46875 -6.796875 L 8.109375 -6.796875 L 6.234375 -19.328125 L 6.203125 -19.328125 Z M 4.46875 -6.796875 "/></g></g></g><g fill="#ffffff" fill-opacity="1"><g transform="translate(973.138841, 152.44222)"><g><path d="M 1.9375 -23.71875 L 6.90625 -23.71875 C 8.320312 -23.71875 9.335938 -23.425781 9.953125 -22.84375 C 10.578125 -22.257812 10.953125 -21.265625 11.078125 -19.859375 C 11.128906 -19.285156 11.15625 -18.390625 11.15625 -17.171875 C 11.15625 -15.953125 10.992188 -14.929688 10.671875 -14.109375 C 10.359375 -13.285156 9.796875 -12.75 8.984375 -12.5 C 9.578125 -12.40625 10.023438 -12.09375 10.328125 -11.5625 C 10.640625 -11.039062 10.859375 -10.207031 10.984375 -9.0625 C 11.109375 -7.914062 11.171875 -6.210938 11.171875 -3.953125 C 11.171875 -1.691406 11.242188 -0.375 11.390625 0 L 8.609375 0 C 8.460938 -0.289062 8.390625 -2.953125 8.390625 -7.984375 C 8.390625 -9.679688 8.222656 -10.664062 7.890625 -10.9375 C 7.554688 -11.21875 7.054688 -11.359375 6.390625 -11.359375 L 4.734375 -11.453125 L 4.734375 0 L 1.9375 0 Z M 8.390625 -17.90625 C 8.390625 -19.726562 8.222656 -20.78125 7.890625 -21.0625 C 7.566406 -21.351562 7.097656 -21.5 6.484375 -21.5 L 4.734375 -21.5 L 4.734375 -13.5 L 6.5 -13.5 C 7.039062 -13.5 7.4375 -13.601562 7.6875 -13.8125 C 7.945312 -14.019531 8.128906 -14.414062 8.234375 -15 C 8.335938 -15.582031 8.390625 -16.5 8.390625 -17.75 Z M 8.390625 -17.90625 "/></g></g></g><g fill="#ffffff" fill-opacity="1"><g transform="translate(992.688779, 152.44222)"><g><path d="M 4.484375 -23.71875 L 7.84375 -23.71875 L 11.765625 0 L 9.140625 0 L 8.46875 -4.53125 L 4.15625 -4.53125 L 3.546875 0 L 0.890625 0 Z M 4.46875 -6.796875 L 8.109375 -6.796875 L 6.234375 -19.328125 L 6.203125 -19.328125 Z M 4.46875 -6.796875 "/></g></g></g><g fill="#ffffff" fill-opacity="1"><g transform="translate(1012.050102, 152.44222)"><g><path d="M 1 -27.046875 L 6.65625 -29.390625 L 6.65625 -26.703125 L 1 -25.546875 Z M 2.15625 -23.71875 L 4.9375 -23.71875 L 4.9375 0 L 2.15625 0 Z M 2.15625 -23.71875 "/></g></g></g><g fill="#ffffff" fill-opacity="1"><g transform="translate(1025.859856, 152.44222)"><g><path d="M 2.15625 -23.71875 L 6.4375 -23.71875 C 8.226562 -23.71875 9.441406 -23.3125 10.078125 -22.5 C 10.722656 -21.6875 11.054688 -20.3125 11.078125 -18.375 L 11.078125 -17.859375 C 11.078125 -16.472656 10.945312 -15.378906 10.6875 -14.578125 C 10.425781 -13.773438 9.957031 -13.195312 9.28125 -12.84375 C 10.738281 -12.25 11.46875 -10.347656 11.46875 -7.140625 L 11.46875 -6.640625 C 11.4375 -4.265625 11.070312 -2.5625 10.375 -1.53125 C 9.6875 -0.507812 8.492188 0 6.796875 0 L 2.15625 0 Z M 8.65625 -7.546875 C 8.65625 -9.066406 8.53125 -10.132812 8.28125 -10.75 C 8.03125 -11.363281 7.535156 -11.671875 6.796875 -11.671875 L 4.9375 -11.671875 L 4.9375 -2.25 L 6.65625 -2.25 C 7.445312 -2.25 7.976562 -2.554688 8.25 -3.171875 C 8.519531 -3.796875 8.65625 -4.976562 8.65625 -6.71875 Z M 8.3125 -18.34375 C 8.3125 -18.363281 8.3125 -18.390625 8.3125 -18.421875 C 8.3125 -20.003906 8.035156 -20.9375 7.484375 -21.21875 C 7.222656 -21.363281 6.832031 -21.4375 6.3125 -21.4375 L 4.9375 -21.4375 L 4.9375 -13.8125 L 6.515625 -13.8125 C 7.054688 -13.8125 7.441406 -13.894531 7.671875 -14.0625 C 7.898438 -14.238281 8.0625 -14.585938 8.15625 -15.109375 C 8.257812 -15.640625 8.3125 -16.492188 8.3125 -17.671875 Z M 8.3125 -18.34375 "/></g></g></g><g fill="#ffffff" fill-opacity="1"><g transform="translate(1045.396345, 152.44222)"><g><path d="M 4.484375 -23.71875 L 7.84375 -23.71875 L 11.765625 0 L 9.140625 0 L 8.46875 -4.53125 L 4.15625 -4.53125 L 3.546875 0 L 0.890625 0 Z M 4.46875 -6.796875 L 8.109375 -6.796875 L 6.234375 -19.328125 L 6.203125 -19.328125 Z M 4.46875 -6.796875 "/></g></g></g><g fill="#ffffff" fill-opacity="1"><g transform="translate(512.742418, 205.296212)"><g><path d="M 1.046875 0 L 1.046875 -23.703125 L 10.546875 -23.703125 L 10.546875 -19.125 L 5.875 -19.125 L 5.875 -14.515625 L 10.34375 -14.515625 L 10.34375 -10.046875 L 5.875 -10.046875 L 5.875 -4.609375 L 10.84375 -4.609375 L 10.84375 0 Z M 1.046875 0 "/></g></g></g><g fill="#ffffff" fill-opacity="1"><g transform="translate(530.820602, 205.296212)"><g><path d="M 1.046875 0 L 1.046875 -23.703125 L 8.28125 -23.703125 L 10.265625 -9.25 L 12.25 -23.703125 L 19.53125 -23.703125 L 19.53125 0 L 15.203125 0 L 15.203125 -17.078125 L 12.46875 0 L 8.21875 0 L 5.328125 -17.078125 L 5.328125 0 Z M 1.046875 0 "/></g></g></g><g fill="#ffffff" fill-opacity="1"><g transform="translate(558.115863, 205.296212)"><g><path d="M 1.046875 -23.703125 L 7.3125 -23.703125 C 9.207031 -23.703125 10.554688 -23.085938 11.359375 -21.859375 C 12.171875 -20.640625 12.578125 -18.851562 12.578125 -16.5 C 12.578125 -14.144531 12.21875 -12.367188 11.5 -11.171875 C 10.789062 -9.972656 9.503906 -9.375 7.640625 -9.375 L 5.71875 -9.375 L 5.71875 0 L 1.046875 0 Z M 5.984375 -13.65625 C 6.554688 -13.65625 6.972656 -13.757812 7.234375 -13.96875 C 7.503906 -14.1875 7.679688 -14.492188 7.765625 -14.890625 C 7.847656 -15.285156 7.890625 -15.847656 7.890625 -16.578125 C 7.890625 -17.578125 7.78125 -18.296875 7.5625 -18.734375 C 7.34375 -19.179688 6.898438 -19.40625 6.234375 -19.40625 L 5.71875 -19.40625 L 5.71875 -13.65625 Z M 5.984375 -13.65625 "/></g></g></g><g fill="#ffffff" fill-opacity="1"><g transform="translate(577.84981, 205.296212)"><g><path d="M 1.046875 -23.703125 L 8.328125 -23.703125 C 9.492188 -23.703125 10.390625 -23.4375 11.015625 -22.90625 C 11.648438 -22.382812 12.078125 -21.648438 12.296875 -20.703125 C 12.523438 -19.753906 12.640625 -18.546875 12.640625 -17.078125 C 12.640625 -15.734375 12.460938 -14.679688 12.109375 -13.921875 C 11.765625 -13.171875 11.160156 -12.648438 10.296875 -12.359375 C 11.015625 -12.210938 11.53125 -11.851562 11.84375 -11.28125 C 12.164062 -10.71875 12.328125 -9.945312 12.328125 -8.96875 L 12.28125 0 L 7.640625 0 L 7.640625 -9.265625 C 7.640625 -9.929688 7.507812 -10.351562 7.25 -10.53125 C 7 -10.71875 6.53125 -10.8125 5.84375 -10.8125 L 5.84375 0 L 1.046875 0 Z M 7.015625 -14.921875 C 7.671875 -14.921875 8 -15.640625 8 -17.078125 C 8 -17.703125 7.972656 -18.171875 7.921875 -18.484375 C 7.867188 -18.796875 7.765625 -19.007812 7.609375 -19.125 C 7.460938 -19.25 7.253906 -19.3125 6.984375 -19.3125 L 5.875 -19.3125 L 5.875 -14.921875 Z M 7.015625 -14.921875 "/></g></g></g><g fill="#ffffff" fill-opacity="1"><g transform="translate(597.721735, 205.296212)"><g><path d="M 1.046875 0 L 1.046875 -23.703125 L 10.546875 -23.703125 L 10.546875 -19.125 L 5.875 -19.125 L 5.875 -14.515625 L 10.34375 -14.515625 L 10.34375 -10.046875 L 5.875 -10.046875 L 5.875 -4.609375 L 10.84375 -4.609375 L 10.84375 0 Z M 1.046875 0 "/></g></g></g><g fill="#ffffff" fill-opacity="1"><g transform="translate(615.799916, 205.296212)"><g><path d="M 6.671875 0.21875 C 4.523438 0.21875 2.972656 -0.3125 2.015625 -1.375 C 1.054688 -2.445312 0.578125 -4.171875 0.578125 -6.546875 L 0.578125 -8.859375 L 5.25 -8.859375 L 5.25 -5.90625 C 5.25 -4.726562 5.625 -4.140625 6.375 -4.140625 C 6.800781 -4.140625 7.09375 -4.265625 7.25 -4.515625 C 7.414062 -4.765625 7.5 -5.179688 7.5 -5.765625 C 7.5 -6.535156 7.40625 -7.171875 7.21875 -7.671875 C 7.039062 -8.179688 6.804688 -8.609375 6.515625 -8.953125 C 6.234375 -9.296875 5.726562 -9.828125 5 -10.546875 L 2.953125 -12.578125 C 1.367188 -14.128906 0.578125 -15.84375 0.578125 -17.71875 C 0.578125 -19.738281 1.039062 -21.273438 1.96875 -22.328125 C 2.894531 -23.390625 4.253906 -23.921875 6.046875 -23.921875 C 8.179688 -23.921875 9.71875 -23.351562 10.65625 -22.21875 C 11.59375 -21.09375 12.0625 -19.328125 12.0625 -16.921875 L 7.234375 -16.921875 L 7.203125 -18.546875 C 7.203125 -18.859375 7.113281 -19.101562 6.9375 -19.28125 C 6.757812 -19.46875 6.515625 -19.5625 6.203125 -19.5625 C 5.835938 -19.5625 5.5625 -19.457031 5.375 -19.25 C 5.195312 -19.050781 5.109375 -18.78125 5.109375 -18.4375 C 5.109375 -17.664062 5.546875 -16.863281 6.421875 -16.03125 L 9.1875 -13.390625 C 9.832031 -12.753906 10.363281 -12.15625 10.78125 -11.59375 C 11.207031 -11.039062 11.550781 -10.378906 11.8125 -9.609375 C 12.070312 -8.847656 12.203125 -7.945312 12.203125 -6.90625 C 12.203125 -4.5625 11.769531 -2.785156 10.90625 -1.578125 C 10.050781 -0.378906 8.640625 0.21875 6.671875 0.21875 Z M 6.671875 0.21875 "/></g></g></g><g fill="#ffffff" fill-opacity="1"><g transform="translate(635.230304, 205.296212)"><g><path d="M 0.40625 0 L 2.703125 -23.703125 L 10.734375 -23.703125 L 13 0 L 8.5 0 L 8.171875 -3.828125 L 5.296875 -3.828125 L 5.015625 0 Z M 5.65625 -7.609375 L 7.8125 -7.609375 L 6.765625 -19.671875 L 6.546875 -19.671875 Z M 5.65625 -7.609375 "/></g></g></g><g fill="#ffffff" fill-opacity="1"><g transform="translate(655.322997, 205.296212)"><g/></g></g><g fill="#ffffff" fill-opacity="1"><g transform="translate(668.489091, 205.296212)"><g><path d="M 6.3125 0.21875 C 5.226562 0.21875 4.242188 0.0078125 3.359375 -0.40625 C 2.484375 -0.832031 1.789062 -1.453125 1.28125 -2.265625 C 0.78125 -3.085938 0.53125 -4.082031 0.53125 -5.25 L 0.53125 -11.171875 L 5.1875 -11.171875 L 5.1875 -5.515625 C 5.1875 -5.097656 5.273438 -4.765625 5.453125 -4.515625 C 5.628906 -4.265625 5.898438 -4.140625 6.265625 -4.140625 C 6.609375 -4.140625 6.867188 -4.253906 7.046875 -4.484375 C 7.222656 -4.710938 7.3125 -5.039062 7.3125 -5.46875 L 7.3125 -23.703125 L 12.09375 -23.703125 L 12.09375 -5.9375 C 12.09375 -4.695312 11.847656 -3.613281 11.359375 -2.6875 C 10.867188 -1.757812 10.1875 -1.039062 9.3125 -0.53125 C 8.4375 -0.03125 7.4375 0.21875 6.3125 0.21875 Z M 6.3125 0.21875 "/></g></g></g><g fill="#ffffff" fill-opacity="1"><g transform="translate(688.057462, 205.296212)"><g><path d="M 6.546875 0.21875 C 4.585938 0.21875 3.132812 -0.332031 2.1875 -1.4375 C 1.238281 -2.539062 0.765625 -4.175781 0.765625 -6.34375 L 0.765625 -23.703125 L 5.375 -23.703125 L 5.375 -6.546875 C 5.375 -5.785156 5.445312 -5.191406 5.59375 -4.765625 C 5.75 -4.347656 6.066406 -4.140625 6.546875 -4.140625 C 7.015625 -4.140625 7.320312 -4.34375 7.46875 -4.75 C 7.625 -5.164062 7.703125 -5.765625 7.703125 -6.546875 L 7.703125 -23.703125 L 12.3125 -23.703125 L 12.3125 -6.34375 C 12.3125 -4.175781 11.835938 -2.539062 10.890625 -1.4375 C 9.941406 -0.332031 8.492188 0.21875 6.546875 0.21875 Z M 3.3125 -24.421875 L 3.3125 -27.421875 L 9.703125 -30.375 L 9.703125 -25.6875 Z M 3.3125 -24.421875 "/></g></g></g><g fill="#ffffff" fill-opacity="1"><g transform="translate(707.846612, 205.296212)"><g><path d="M 1.046875 0 L 1.046875 -23.703125 L 5.9375 -23.703125 L 8.109375 -12.359375 L 8.109375 -23.703125 L 12.6875 -23.703125 L 12.6875 0 L 8.0625 0 L 5.6875 -11.859375 L 5.6875 0 Z M 1.046875 0 "/></g></g></g><g fill="#ffffff" fill-opacity="1"><g transform="translate(728.298056, 205.296212)"><g><path d="M 0.828125 0 L 0.828125 -23.703125 L 5.40625 -23.703125 L 5.40625 0 Z M 0.828125 0 "/></g></g></g><g fill="#ffffff" fill-opacity="1"><g transform="translate(741.27097, 205.296212)"><g><path d="M 6.703125 0.21875 C 4.785156 0.21875 3.332031 -0.363281 2.34375 -1.53125 C 1.351562 -2.695312 0.859375 -4.335938 0.859375 -6.453125 L 0.859375 -17.75 C 0.859375 -19.789062 1.351562 -21.328125 2.34375 -22.359375 C 3.332031 -23.398438 4.785156 -23.921875 6.703125 -23.921875 C 8.617188 -23.921875 10.070312 -23.398438 11.0625 -22.359375 C 12.0625 -21.328125 12.5625 -19.789062 12.5625 -17.75 L 12.5625 -6.453125 C 12.5625 -4.316406 12.0625 -2.671875 11.0625 -1.515625 C 10.070312 -0.359375 8.617188 0.21875 6.703125 0.21875 Z M 6.703125 -4.140625 C 7.128906 -4.140625 7.414062 -4.320312 7.5625 -4.6875 C 7.707031 -5.0625 7.78125 -5.578125 7.78125 -6.234375 L 7.78125 -17.828125 C 7.78125 -18.335938 7.710938 -18.753906 7.578125 -19.078125 C 7.441406 -19.398438 7.160156 -19.5625 6.734375 -19.5625 C 5.941406 -19.5625 5.546875 -18.960938 5.546875 -17.765625 L 5.546875 -6.203125 C 5.546875 -5.523438 5.628906 -5.007812 5.796875 -4.65625 C 5.960938 -4.3125 6.265625 -4.140625 6.703125 -4.140625 Z M 6.703125 -4.140625 "/></g></g></g><g fill="#ffffff" fill-opacity="1"><g transform="translate(761.391272, 205.296212)"><g><path d="M 1.046875 -23.703125 L 8.328125 -23.703125 C 9.492188 -23.703125 10.390625 -23.4375 11.015625 -22.90625 C 11.648438 -22.382812 12.078125 -21.648438 12.296875 -20.703125 C 12.523438 -19.753906 12.640625 -18.546875 12.640625 -17.078125 C 12.640625 -15.734375 12.460938 -14.679688 12.109375 -13.921875 C 11.765625 -13.171875 11.160156 -12.648438 10.296875 -12.359375 C 11.015625 -12.210938 11.53125 -11.851562 11.84375 -11.28125 C 12.164062 -10.71875 12.328125 -9.945312 12.328125 -8.96875 L 12.28125 0 L 7.640625 0 L 7.640625 -9.265625 C 7.640625 -9.929688 7.507812 -10.351562 7.25 -10.53125 C 7 -10.71875 6.53125 -10.8125 5.84375 -10.8125 L 5.84375 0 L 1.046875 0 Z M 7.015625 -14.921875 C 7.671875 -14.921875 8 -15.640625 8 -17.078125 C 8 -17.703125 7.972656 -18.171875 7.921875 -18.484375 C 7.867188 -18.796875 7.765625 -19.007812 7.609375 -19.125 C 7.460938 -19.25 7.253906 -19.3125 6.984375 -19.3125 L 5.875 -19.3125 L 5.875 -14.921875 Z M 7.015625 -14.921875 "/></g></g></g><g fill="#ffffff" fill-opacity="1"><g transform="translate(781.263197, 205.296212)"><g/></g></g><g fill="#ffffff" fill-opacity="1"><g transform="translate(794.429291, 205.296212)"><g><path d="M 1.046875 -23.703125 L 7.59375 -23.703125 C 9.28125 -23.703125 10.546875 -23.234375 11.390625 -22.296875 C 12.242188 -21.359375 12.675781 -19.96875 12.6875 -18.125 L 12.75 -7.03125 C 12.769531 -4.695312 12.363281 -2.941406 11.53125 -1.765625 C 10.707031 -0.585938 9.335938 0 7.421875 0 L 1.046875 0 Z M 6.65625 -4.1875 C 7.519531 -4.1875 7.953125 -4.613281 7.953125 -5.46875 L 7.953125 -17.6875 C 7.953125 -18.21875 7.910156 -18.613281 7.828125 -18.875 C 7.742188 -19.144531 7.585938 -19.328125 7.359375 -19.421875 C 7.140625 -19.515625 6.800781 -19.5625 6.34375 -19.5625 L 5.828125 -19.5625 L 5.828125 -4.1875 Z M 6.65625 -4.1875 "/></g></g></g><g fill="#ffffff" fill-opacity="1"><g transform="translate(814.742752, 205.296212)"><g><path d="M 1.046875 0 L 1.046875 -23.703125 L 10.546875 -23.703125 L 10.546875 -19.125 L 5.875 -19.125 L 5.875 -14.515625 L 10.34375 -14.515625 L 10.34375 -10.046875 L 5.875 -10.046875 L 5.875 -4.609375 L 10.84375 -4.609375 L 10.84375 0 Z M 1.046875 0 "/></g></g></g><g fill="#ffffff" fill-opacity="1"><g transform="translate(832.820942, 205.296212)"><g/></g></g><g fill="#ffffff" fill-opacity="1"><g transform="translate(845.987036, 205.296212)"><g><path d="M 1.046875 -23.703125 L 7.59375 -23.703125 C 9.28125 -23.703125 10.546875 -23.234375 11.390625 -22.296875 C 12.242188 -21.359375 12.675781 -19.96875 12.6875 -18.125 L 12.75 -7.03125 C 12.769531 -4.695312 12.363281 -2.941406 11.53125 -1.765625 C 10.707031 -0.585938 9.335938 0 7.421875 0 L 1.046875 0 Z M 6.65625 -4.1875 C 7.519531 -4.1875 7.953125 -4.613281 7.953125 -5.46875 L 7.953125 -17.6875 C 7.953125 -18.21875 7.910156 -18.613281 7.828125 -18.875 C 7.742188 -19.144531 7.585938 -19.328125 7.359375 -19.421875 C 7.140625 -19.515625 6.800781 -19.5625 6.34375 -19.5625 L 5.828125 -19.5625 L 5.828125 -4.1875 Z M 6.65625 -4.1875 "/></g></g></g><g fill="#ffffff" fill-opacity="1"><g transform="translate(866.300518, 205.296212)"><g><path d="M 1.046875 0 L 1.046875 -23.703125 L 10.546875 -23.703125 L 10.546875 -19.125 L 5.875 -19.125 L 5.875 -14.515625 L 10.34375 -14.515625 L 10.34375 -10.046875 L 5.875 -10.046875 L 5.875 -4.609375 L 10.84375 -4.609375 L 10.84375 0 Z M 1.046875 0 "/></g></g></g><g fill="#ffffff" fill-opacity="1"><g transform="translate(884.378709, 205.296212)"><g><path d="M 6.671875 0.21875 C 4.523438 0.21875 2.972656 -0.3125 2.015625 -1.375 C 1.054688 -2.445312 0.578125 -4.171875 0.578125 -6.546875 L 0.578125 -8.859375 L 5.25 -8.859375 L 5.25 -5.90625 C 5.25 -4.726562 5.625 -4.140625 6.375 -4.140625 C 6.800781 -4.140625 7.09375 -4.265625 7.25 -4.515625 C 7.414062 -4.765625 7.5 -5.179688 7.5 -5.765625 C 7.5 -6.535156 7.40625 -7.171875 7.21875 -7.671875 C 7.039062 -8.179688 6.804688 -8.609375 6.515625 -8.953125 C 6.234375 -9.296875 5.726562 -9.828125 5 -10.546875 L 2.953125 -12.578125 C 1.367188 -14.128906 0.578125 -15.84375 0.578125 -17.71875 C 0.578125 -19.738281 1.039062 -21.273438 1.96875 -22.328125 C 2.894531 -23.390625 4.253906 -23.921875 6.046875 -23.921875 C 8.179688 -23.921875 9.71875 -23.351562 10.65625 -22.21875 C 11.59375 -21.09375 12.0625 -19.328125 12.0625 -16.921875 L 7.234375 -16.921875 L 7.203125 -18.546875 C 7.203125 -18.859375 7.113281 -19.101562 6.9375 -19.28125 C 6.757812 -19.46875 6.515625 -19.5625 6.203125 -19.5625 C 5.835938 -19.5625 5.5625 -19.457031 5.375 -19.25 C 5.195312 -19.050781 5.109375 -18.78125 5.109375 -18.4375 C 5.109375 -17.664062 5.546875 -16.863281 6.421875 -16.03125 L 9.1875 -13.390625 C 9.832031 -12.753906 10.363281 -12.15625 10.78125 -11.59375 C 11.207031 -11.039062 11.550781 -10.378906 11.8125 -9.609375 C 12.070312 -8.847656 12.203125 -7.945312 12.203125 -6.90625 C 12.203125 -4.5625 11.769531 -2.785156 10.90625 -1.578125 C 10.050781 -0.378906 8.640625 0.21875 6.671875 0.21875 Z M 6.671875 0.21875 "/></g></g></g><g fill="#ffffff" fill-opacity="1"><g transform="translate(903.809119, 205.296212)"><g><path d="M 1.046875 0 L 1.046875 -23.703125 L 10.546875 -23.703125 L 10.546875 -19.125 L 5.875 -19.125 L 5.875 -14.515625 L 10.34375 -14.515625 L 10.34375 -10.046875 L 5.875 -10.046875 L 5.875 -4.609375 L 10.84375 -4.609375 L 10.84375 0 Z M 1.046875 0 "/></g></g></g><g fill="#ffffff" fill-opacity="1"><g transform="translate(921.887309, 205.296212)"><g><path d="M 1.046875 0 L 1.046875 -23.703125 L 5.9375 -23.703125 L 8.109375 -12.359375 L 8.109375 -23.703125 L 12.6875 -23.703125 L 12.6875 0 L 8.0625 0 L 5.6875 -11.859375 L 5.6875 0 Z M 1.046875 0 "/></g></g></g><g fill="#ffffff" fill-opacity="1"><g transform="translate(942.338754, 205.296212)"><g><path d="M 3.234375 0 L 0.296875 -23.734375 L 4.828125 -23.734375 L 6.5625 -7.59375 L 8.109375 -23.734375 L 12.640625 -23.734375 L 9.71875 0 Z M 3.234375 0 "/></g></g></g><g fill="#ffffff" fill-opacity="1"><g transform="translate(961.98991, 205.296212)"><g><path d="M 6.703125 0.21875 C 4.785156 0.21875 3.332031 -0.363281 2.34375 -1.53125 C 1.351562 -2.695312 0.859375 -4.335938 0.859375 -6.453125 L 0.859375 -17.75 C 0.859375 -19.789062 1.351562 -21.328125 2.34375 -22.359375 C 3.332031 -23.398438 4.785156 -23.921875 6.703125 -23.921875 C 8.617188 -23.921875 10.070312 -23.398438 11.0625 -22.359375 C 12.0625 -21.328125 12.5625 -19.789062 12.5625 -17.75 L 12.5625 -6.453125 C 12.5625 -4.316406 12.0625 -2.671875 11.0625 -1.515625 C 10.070312 -0.359375 8.617188 0.21875 6.703125 0.21875 Z M 6.703125 -4.140625 C 7.128906 -4.140625 7.414062 -4.320312 7.5625 -4.6875 C 7.707031 -5.0625 7.78125 -5.578125 7.78125 -6.234375 L 7.78125 -17.828125 C 7.78125 -18.335938 7.710938 -18.753906 7.578125 -19.078125 C 7.441406 -19.398438 7.160156 -19.5625 6.734375 -19.5625 C 5.941406 -19.5625 5.546875 -18.960938 5.546875 -17.765625 L 5.546875 -6.203125 C 5.546875 -5.523438 5.628906 -5.007812 5.796875 -4.65625 C 5.960938 -4.3125 6.265625 -4.140625 6.703125 -4.140625 Z M 6.703125 -4.140625 "/></g></g></g><g fill="#ffffff" fill-opacity="1"><g transform="translate(982.110213, 205.296212)"><g><path d="M 1.046875 0 L 1.046875 -23.703125 L 5.796875 -23.703125 L 5.796875 -4.03125 L 10.671875 -4.03125 L 10.671875 0 Z M 1.046875 0 "/></g></g></g><g fill="#ffffff" fill-opacity="1"><g transform="translate(999.774477, 205.296212)"><g><path d="M 3.234375 0 L 0.296875 -23.734375 L 4.828125 -23.734375 L 6.5625 -7.59375 L 8.109375 -23.734375 L 12.640625 -23.734375 L 9.71875 0 Z M 3.234375 0 "/></g></g></g><g fill="#ffffff" fill-opacity="1"><g transform="translate(1019.425633, 205.296212)"><g><path d="M 0.828125 0 L 0.828125 -23.703125 L 5.40625 -23.703125 L 5.40625 0 Z M 0.828125 0 "/></g></g></g><g fill="#ffffff" fill-opacity="1"><g transform="translate(1032.398567, 205.296212)"><g><path d="M 1.046875 0 L 1.046875 -23.703125 L 8.28125 -23.703125 L 10.265625 -9.25 L 12.25 -23.703125 L 19.53125 -23.703125 L 19.53125 0 L 15.203125 0 L 15.203125 -17.078125 L 12.46875 0 L 8.21875 0 L 5.328125 -17.078125 L 5.328125 0 Z M 1.046875 0 "/></g></g></g><g fill="#ffffff" fill-opacity="1"><g transform="translate(1059.693847, 205.296212)"><g><path d="M 1.046875 0 L 1.046875 -23.703125 L 10.546875 -23.703125 L 10.546875 -19.125 L 5.875 -19.125 L 5.875 -14.515625 L 10.34375 -14.515625 L 10.34375 -10.046875 L 5.875 -10.046875 L 5.875 -4.609375 L 10.84375 -4.609375 L 10.84375 0 Z M 1.046875 0 "/></g></g></g><g fill="#ffffff" fill-opacity="1"><g transform="translate(1077.772038, 205.296212)"><g><path d="M 1.046875 0 L 1.046875 -23.703125 L 5.9375 -23.703125 L 8.109375 -12.359375 L 8.109375 -23.703125 L 12.6875 -23.703125 L 12.6875 0 L 8.0625 0 L 5.6875 -11.859375 L 5.6875 0 Z M 1.046875 0 "/></g></g></g><g fill="#ffffff" fill-opacity="1"><g transform="translate(1098.223482, 205.296212)"><g><path d="M 3.09375 0 L 3.09375 -19.15625 L 0.28125 -19.15625 L 0.28125 -23.703125 L 10.65625 -23.703125 L 10.65625 -19.15625 L 7.84375 -19.15625 L 7.84375 0 Z M 3.09375 0 "/></g></g></g><g fill="#ffffff" fill-opacity="1"><g transform="translate(1115.860137, 205.296212)"><g><path d="M 6.703125 0.21875 C 4.785156 0.21875 3.332031 -0.363281 2.34375 -1.53125 C 1.351562 -2.695312 0.859375 -4.335938 0.859375 -6.453125 L 0.859375 -17.75 C 0.859375 -19.789062 1.351562 -21.328125 2.34375 -22.359375 C 3.332031 -23.398438 4.785156 -23.921875 6.703125 -23.921875 C 8.617188 -23.921875 10.070312 -23.398438 11.0625 -22.359375 C 12.0625 -21.328125 12.5625 -19.789062 12.5625 -17.75 L 12.5625 -6.453125 C 12.5625 -4.316406 12.0625 -2.671875 11.0625 -1.515625 C 10.070312 -0.359375 8.617188 0.21875 6.703125 0.21875 Z M 6.703125 -4.140625 C 7.128906 -4.140625 7.414062 -4.320312 7.5625 -4.6875 C 7.707031 -5.0625 7.78125 -5.578125 7.78125 -6.234375 L 7.78125 -17.828125 C 7.78125 -18.335938 7.710938 -18.753906 7.578125 -19.078125 C 7.441406 -19.398438 7.160156 -19.5625 6.734375 -19.5625 C 5.941406 -19.5625 5.546875 -18.960938 5.546875 -17.765625 L 5.546875 -6.203125 C 5.546875 -5.523438 5.628906 -5.007812 5.796875 -4.65625 C 5.960938 -4.3125 6.265625 -4.140625 6.703125 -4.140625 Z M 6.703125 -4.140625 "/></g></g></g><g fill="#ffffff" fill-opacity="1"><g transform="translate(1135.980439, 205.296212)"><g/></g></g><g fill="#ffffff" fill-opacity="1"><g transform="translate(1149.146553, 205.296212)"><g><path d="M 1.046875 -23.703125 L 7.59375 -23.703125 C 9.28125 -23.703125 10.546875 -23.234375 11.390625 -22.296875 C 12.242188 -21.359375 12.675781 -19.96875 12.6875 -18.125 L 12.75 -7.03125 C 12.769531 -4.695312 12.363281 -2.941406 11.53125 -1.765625 C 10.707031 -0.585938 9.335938 0 7.421875 0 L 1.046875 0 Z M 6.65625 -4.1875 C 7.519531 -4.1875 7.953125 -4.613281 7.953125 -5.46875 L 7.953125 -17.6875 C 7.953125 -18.21875 7.910156 -18.613281 7.828125 -18.875 C 7.742188 -19.144531 7.585938 -19.328125 7.359375 -19.421875 C 7.140625 -19.515625 6.800781 -19.5625 6.34375 -19.5625 L 5.828125 -19.5625 L 5.828125 -4.1875 Z M 6.65625 -4.1875 "/></g></g></g><g fill="#ffffff" fill-opacity="1"><g transform="translate(1169.460036, 205.296212)"><g><path d="M 1.046875 0 L 1.046875 -23.703125 L 10.546875 -23.703125 L 10.546875 -19.125 L 5.875 -19.125 L 5.875 -14.515625 L 10.34375 -14.515625 L 10.34375 -10.046875 L 5.875 -10.046875 L 5.875 -4.609375 L 10.84375 -4.609375 L 10.84375 0 Z M 1.046875 0 "/></g></g></g><g fill="#ffffff" fill-opacity="1"><g transform="translate(1187.538226, 205.296212)"><g/></g></g><g fill="#ffffff" fill-opacity="1"><g transform="translate(1200.70434, 205.296212)"><g><path d="M 6.671875 0.21875 C 4.523438 0.21875 2.972656 -0.3125 2.015625 -1.375 C 1.054688 -2.445312 0.578125 -4.171875 0.578125 -6.546875 L 0.578125 -8.859375 L 5.25 -8.859375 L 5.25 -5.90625 C 5.25 -4.726562 5.625 -4.140625 6.375 -4.140625 C 6.800781 -4.140625 7.09375 -4.265625 7.25 -4.515625 C 7.414062 -4.765625 7.5 -5.179688 7.5 -5.765625 C 7.5 -6.535156 7.40625 -7.171875 7.21875 -7.671875 C 7.039062 -8.179688 6.804688 -8.609375 6.515625 -8.953125 C 6.234375 -9.296875 5.726562 -9.828125 5 -10.546875 L 2.953125 -12.578125 C 1.367188 -14.128906 0.578125 -15.84375 0.578125 -17.71875 C 0.578125 -19.738281 1.039062 -21.273438 1.96875 -22.328125 C 2.894531 -23.390625 4.253906 -23.921875 6.046875 -23.921875 C 8.179688 -23.921875 9.71875 -23.351562 10.65625 -22.21875 C 11.59375 -21.09375 12.0625 -19.328125 12.0625 -16.921875 L 7.234375 -16.921875 L 7.203125 -18.546875 C 7.203125 -18.859375 7.113281 -19.101562 6.9375 -19.28125 C 6.757812 -19.46875 6.515625 -19.5625 6.203125 -19.5625 C 5.835938 -19.5625 5.5625 -19.457031 5.375 -19.25 C 5.195312 -19.050781 5.109375 -18.78125 5.109375 -18.4375 C 5.109375 -17.664062 5.546875 -16.863281 6.421875 -16.03125 L 9.1875 -13.390625 C 9.832031 -12.753906 10.363281 -12.15625 10.78125 -11.59375 C 11.207031 -11.039062 11.550781 -10.378906 11.8125 -9.609375 C 12.070312 -8.847656 12.203125 -7.945312 12.203125 -6.90625 C 12.203125 -4.5625 11.769531 -2.785156 10.90625 -1.578125 C 10.050781 -0.378906 8.640625 0.21875 6.671875 0.21875 Z M 6.671875 0.21875 "/></g></g></g><g fill="#ffffff" fill-opacity="1"><g transform="translate(1220.134708, 205.296212)"><g><path d="M 6.703125 0.21875 C 4.785156 0.21875 3.332031 -0.363281 2.34375 -1.53125 C 1.351562 -2.695312 0.859375 -4.335938 0.859375 -6.453125 L 0.859375 -17.75 C 0.859375 -19.789062 1.351562 -21.328125 2.34375 -22.359375 C 3.332031 -23.398438 4.785156 -23.921875 6.703125 -23.921875 C 8.617188 -23.921875 10.070312 -23.398438 11.0625 -22.359375 C 12.0625 -21.328125 12.5625 -19.789062 12.5625 -17.75 L 12.5625 -6.453125 C 12.5625 -4.316406 12.0625 -2.671875 11.0625 -1.515625 C 10.070312 -0.359375 8.617188 0.21875 6.703125 0.21875 Z M 6.703125 -4.140625 C 7.128906 -4.140625 7.414062 -4.320312 7.5625 -4.6875 C 7.707031 -5.0625 7.78125 -5.578125 7.78125 -6.234375 L 7.78125 -17.828125 C 7.78125 -18.335938 7.710938 -18.753906 7.578125 -19.078125 C 7.441406 -19.398438 7.160156 -19.5625 6.734375 -19.5625 C 5.941406 -19.5625 5.546875 -18.960938 5.546875 -17.765625 L 5.546875 -6.203125 C 5.546875 -5.523438 5.628906 -5.007812 5.796875 -4.65625 C 5.960938 -4.3125 6.265625 -4.140625 6.703125 -4.140625 Z M 6.703125 -4.140625 "/></g></g></g><g fill="#ffffff" fill-opacity="1"><g transform="translate(1240.25501, 205.296212)"><g><path d="M 1.046875 0 L 1.046875 -23.703125 L 10.546875 -23.703125 L 10.546875 -19.09375 L 5.828125 -19.09375 L 5.828125 -15.3125 L 10.296875 -15.3125 L 10.296875 -10.765625 L 5.828125 -10.765625 L 5.828125 0 Z M 1.046875 0 "/></g></g></g><g fill="#ffffff" fill-opacity="1"><g transform="translate(1257.97445, 205.296212)"><g><path d="M 3.09375 0 L 3.09375 -19.15625 L 0.28125 -19.15625 L 0.28125 -23.703125 L 10.65625 -23.703125 L 10.65625 -19.15625 L 7.84375 -19.15625 L 7.84375 0 Z M 3.09375 0 "/></g></g></g><g fill="#ffffff" fill-opacity="1"><g transform="translate(1275.611105, 205.296212)"><g><path d="M 2.890625 0 L 0.359375 -23.703125 L 5 -23.703125 L 6.3125 -8.75 L 7.640625 -23.703125 L 12.0625 -23.703125 L 13.328125 -8.75 L 14.59375 -23.703125 L 19.28125 -23.703125 L 16.6875 0 L 11.015625 0 L 9.828125 -11.421875 L 8.6875 0 Z M 2.890625 0 "/></g></g></g><g fill="#ffffff" fill-opacity="1"><g transform="translate(1301.968135, 205.296212)"><g><path d="M 0.40625 0 L 2.703125 -23.703125 L 10.734375 -23.703125 L 13 0 L 8.5 0 L 8.171875 -3.828125 L 5.296875 -3.828125 L 5.015625 0 Z M 5.65625 -7.609375 L 7.8125 -7.609375 L 6.765625 -19.671875 L 6.546875 -19.671875 Z M 5.65625 -7.609375 "/></g></g></g><g fill="#ffffff" fill-opacity="1"><g transform="translate(1322.060871, 205.296212)"><g><path d="M 1.046875 -23.703125 L 8.328125 -23.703125 C 9.492188 -23.703125 10.390625 -23.4375 11.015625 -22.90625 C 11.648438 -22.382812 12.078125 -21.648438 12.296875 -20.703125 C 12.523438 -19.753906 12.640625 -18.546875 12.640625 -17.078125 C 12.640625 -15.734375 12.460938 -14.679688 12.109375 -13.921875 C 11.765625 -13.171875 11.160156 -12.648438 10.296875 -12.359375 C 11.015625 -12.210938 11.53125 -11.851562 11.84375 -11.28125 C 12.164062 -10.71875 12.328125 -9.945312 12.328125 -8.96875 L 12.28125 0 L 7.640625 0 L 7.640625 -9.265625 C 7.640625 -9.929688 7.507812 -10.351562 7.25 -10.53125 C 7 -10.71875 6.53125 -10.8125 5.84375 -10.8125 L 5.84375 0 L 1.046875 0 Z M 7.015625 -14.921875 C 7.671875 -14.921875 8 -15.640625 8 -17.078125 C 8 -17.703125 7.972656 -18.171875 7.921875 -18.484375 C 7.867188 -18.796875 7.765625 -19.007812 7.609375 -19.125 C 7.460938 -19.25 7.253906 -19.3125 6.984375 -19.3125 L 5.875 -19.3125 L 5.875 -14.921875 Z M 7.015625 -14.921875 "/></g></g></g><g fill="#ffffff" fill-opacity="1"><g transform="translate(1341.932816, 205.296212)"><g><path d="M 1.046875 0 L 1.046875 -23.703125 L 10.546875 -23.703125 L 10.546875 -19.125 L 5.875 -19.125 L 5.875 -14.515625 L 10.34375 -14.515625 L 10.34375 -10.046875 L 5.875 -10.046875 L 5.875 -4.609375 L 10.84375 -4.609375 L 10.84375 0 Z M 1.046875 0 "/></g></g></g><g fill="#ffffff" fill-opacity="1"><g transform="translate(512.742418, 259.523034)"><g><path d="M 1.671875 -16.875 C 1.671875 -18.664062 1.816406 -19.984375 2.109375 -20.828125 C 2.410156 -21.671875 2.734375 -22.289062 3.078125 -22.6875 C 3.847656 -23.550781 4.960938 -23.988281 6.421875 -24 C 8.472656 -23.988281 9.796875 -23.082031 10.390625 -21.28125 C 10.734375 -20.25 10.90625 -18.878906 10.90625 -17.171875 L 10.90625 -14.53125 L 8.171875 -14.53125 L 8.171875 -17.171875 C 8.171875 -18.691406 8.085938 -19.71875 7.921875 -20.25 C 7.753906 -20.789062 7.550781 -21.144531 7.3125 -21.3125 C 7.082031 -21.488281 6.785156 -21.578125 6.421875 -21.578125 C 5.679688 -21.578125 5.164062 -21.222656 4.875 -20.515625 C 4.59375 -19.816406 4.453125 -18.707031 4.453125 -17.1875 L 4.453125 -6.921875 C 4.453125 -5.128906 4.582031 -3.875 4.84375 -3.15625 C 5.101562 -2.445312 5.597656 -2.09375 6.328125 -2.09375 C 7.054688 -2.09375 7.546875 -2.453125 7.796875 -3.171875 C 8.046875 -3.890625 8.171875 -5.144531 8.171875 -6.9375 L 8.171875 -9.5625 L 10.921875 -9.5625 L 10.921875 -6.96875 C 10.921875 -4.476562 10.582031 -2.644531 9.90625 -1.46875 C 9.226562 -0.300781 8.046875 0.28125 6.359375 0.28125 C 4.671875 0.28125 3.46875 -0.320312 2.75 -1.53125 C 2.03125 -2.738281 1.671875 -4.5625 1.671875 -7 Z M 1.671875 -16.875 "/></g></g></g><g fill="#ffffff" fill-opacity="1"><g transform="translate(531.820751, 259.523034)"><g><path d="M 1.9375 -23.71875 L 9.03125 -23.71875 L 9.03125 -21.390625 L 4.734375 -21.390625 L 4.734375 -13.28125 L 8.796875 -13.28125 L 8.796875 -10.96875 L 4.734375 -10.96875 L 4.734375 -2.3125 L 9.078125 -2.3125 L 9.078125 0 L 1.9375 0 Z M 1.9375 -23.71875 "/></g></g></g><g fill="#ffffff" fill-opacity="1"><g transform="translate(548.918318, 259.523034)"><g><path d="M 9.25 -23.71875 L 11.71875 -23.71875 L 11.71875 0 L 9.671875 0 L 4.359375 -16.28125 L 4.515625 -10.296875 L 4.515625 0 L 1.9375 0 L 1.9375 -23.71875 L 4.046875 -23.71875 L 9.546875 -7.578125 L 9.25 -14.4375 Z M 9.25 -23.71875 "/></g></g></g><g fill="#ffffff" fill-opacity="1"><g transform="translate(569.290219, 259.523034)"><g><path d="M 0.375 -23.71875 L 8.203125 -23.71875 L 8.203125 -21.390625 L 5.765625 -21.390625 L 5.765625 0 L 2.984375 0 L 2.984375 -21.390625 L 0.375 -21.390625 Z M 0.375 -23.71875 "/></g></g></g><g fill="#ffffff" fill-opacity="1"><g transform="translate(584.582183, 259.523034)"><g><path d="M 1.9375 -23.71875 L 6.90625 -23.71875 C 8.320312 -23.71875 9.335938 -23.425781 9.953125 -22.84375 C 10.578125 -22.257812 10.953125 -21.265625 11.078125 -19.859375 C 11.128906 -19.285156 11.15625 -18.390625 11.15625 -17.171875 C 11.15625 -15.953125 10.992188 -14.929688 10.671875 -14.109375 C 10.359375 -13.285156 9.796875 -12.75 8.984375 -12.5 C 9.578125 -12.40625 10.023438 -12.09375 10.328125 -11.5625 C 10.640625 -11.039062 10.859375 -10.207031 10.984375 -9.0625 C 11.109375 -7.914062 11.171875 -6.210938 11.171875 -3.953125 C 11.171875 -1.691406 11.242188 -0.375 11.390625 0 L 8.609375 0 C 8.460938 -0.289062 8.390625 -2.953125 8.390625 -7.984375 C 8.390625 -9.679688 8.222656 -10.664062 7.890625 -10.9375 C 7.554688 -11.21875 7.054688 -11.359375 6.390625 -11.359375 L 4.734375 -11.453125 L 4.734375 0 L 1.9375 0 Z M 8.390625 -17.90625 C 8.390625 -19.726562 8.222656 -20.78125 7.890625 -21.0625 C 7.566406 -21.351562 7.097656 -21.5 6.484375 -21.5 L 4.734375 -21.5 L 4.734375 -13.5 L 6.5 -13.5 C 7.039062 -13.5 7.4375 -13.601562 7.6875 -13.8125 C 7.945312 -14.019531 8.128906 -14.414062 8.234375 -15 C 8.335938 -15.582031 8.390625 -16.5 8.390625 -17.75 Z M 8.390625 -17.90625 "/></g></g></g><g fill="#ffffff" fill-opacity="1"><g transform="translate(604.13213, 259.523034)"><g><path d="M 1.671875 -17.265625 C 1.671875 -19.960938 2.15625 -21.816406 3.125 -22.828125 C 3.882812 -23.617188 4.992188 -24.015625 6.453125 -24.015625 C 8.578125 -24.015625 9.929688 -23.140625 10.515625 -21.390625 C 10.867188 -20.359375 11.046875 -18.984375 11.046875 -17.265625 L 11.046875 -6.8125 C 11.046875 -4.34375 10.695312 -2.546875 10 -1.421875 C 9.3125 -0.296875 8.101562 0.265625 6.375 0.265625 C 4.644531 0.265625 3.425781 -0.296875 2.71875 -1.421875 C 2.019531 -2.554688 1.671875 -4.351562 1.671875 -6.8125 Z M 8.265625 -17.4375 C 8.265625 -18.957031 8.140625 -20.03125 7.890625 -20.65625 C 7.648438 -21.289062 7.160156 -21.609375 6.421875 -21.609375 C 5.691406 -21.609375 5.179688 -21.285156 4.890625 -20.640625 C 4.597656 -19.992188 4.453125 -18.929688 4.453125 -17.453125 L 4.453125 -6.796875 C 4.453125 -4.984375 4.578125 -3.75 4.828125 -3.09375 C 5.085938 -2.445312 5.597656 -2.125 6.359375 -2.125 C 7.117188 -2.125 7.625 -2.453125 7.875 -3.109375 C 8.132812 -3.773438 8.265625 -5.003906 8.265625 -6.796875 Z M 8.265625 -17.4375 "/></g></g></g><g fill="#ffffff" fill-opacity="1"><g transform="translate(623.560801, 259.523034)"><g/></g></g><g fill="#ffffff" fill-opacity="1"><g transform="translate(637.047164, 259.523034)"><g><path d="M 1.921875 -23.71875 L 6.390625 -23.71875 C 8.203125 -23.71875 9.445312 -23.15625 10.125 -22.03125 C 10.8125 -20.914062 11.15625 -19.328125 11.15625 -17.265625 L 11.171875 -6.859375 C 11.171875 -4.421875 10.796875 -2.664062 10.046875 -1.59375 C 9.304688 -0.53125 8.054688 0 6.296875 0 L 1.921875 0 Z M 8.375 -17.34375 C 8.375 -18.820312 8.195312 -19.882812 7.84375 -20.53125 C 7.5 -21.175781 6.925781 -21.5 6.125 -21.5 L 4.703125 -21.5 L 4.703125 -2.25 L 6.125 -2.25 C 6.664062 -2.25 7.085938 -2.359375 7.390625 -2.578125 C 8.046875 -3.046875 8.375 -4.328125 8.375 -6.421875 Z M 8.375 -17.34375 "/></g></g></g><g fill="#ffffff" fill-opacity="1"><g transform="translate(656.543213, 259.523034)"><g><path d="M 1.9375 -23.71875 L 9.03125 -23.71875 L 9.03125 -21.390625 L 4.734375 -21.390625 L 4.734375 -13.28125 L 8.796875 -13.28125 L 8.796875 -10.96875 L 4.734375 -10.96875 L 4.734375 -2.3125 L 9.078125 -2.3125 L 9.078125 0 L 1.9375 0 Z M 1.9375 -23.71875 "/></g></g></g><g fill="#ffffff" fill-opacity="1"><g transform="translate(673.640778, 259.523034)"><g/></g></g><g fill="#ffffff" fill-opacity="1"><g transform="translate(687.127141, 259.523034)"><g><path d="M 2.15625 -23.71875 L 4.9375 -23.71875 L 4.9375 0 L 2.15625 0 Z M 2.15625 -23.71875 "/></g></g></g><g fill="#ffffff" fill-opacity="1"><g transform="translate(700.936895, 259.523034)"><g><path d="M 9.25 -23.71875 L 11.71875 -23.71875 L 11.71875 0 L 9.671875 0 L 4.359375 -16.28125 L 4.515625 -10.296875 L 4.515625 0 L 1.9375 0 L 1.9375 -23.71875 L 4.046875 -23.71875 L 9.546875 -7.578125 L 9.25 -14.4375 Z M 9.25 -23.71875 "/></g></g></g><g fill="#ffffff" fill-opacity="1"><g transform="translate(721.3088, 259.523034)"><g><path d="M 1.921875 -23.71875 L 9.0625 -23.71875 L 9.0625 -21.375 L 4.703125 -21.375 L 4.703125 -13.890625 L 8.796875 -13.890625 L 8.796875 -11.53125 L 4.703125 -11.53125 L 4.703125 0 L 1.921875 0 Z M 1.921875 -23.71875 "/></g></g></g><g fill="#ffffff" fill-opacity="1"><g transform="translate(738.069505, 259.523034)"><g><path d="M 1.671875 -17.265625 C 1.671875 -19.960938 2.15625 -21.816406 3.125 -22.828125 C 3.882812 -23.617188 4.992188 -24.015625 6.453125 -24.015625 C 8.578125 -24.015625 9.929688 -23.140625 10.515625 -21.390625 C 10.867188 -20.359375 11.046875 -18.984375 11.046875 -17.265625 L 11.046875 -6.8125 C 11.046875 -4.34375 10.695312 -2.546875 10 -1.421875 C 9.3125 -0.296875 8.101562 0.265625 6.375 0.265625 C 4.644531 0.265625 3.425781 -0.296875 2.71875 -1.421875 C 2.019531 -2.554688 1.671875 -4.351562 1.671875 -6.8125 Z M 8.265625 -17.4375 C 8.265625 -18.957031 8.140625 -20.03125 7.890625 -20.65625 C 7.648438 -21.289062 7.160156 -21.609375 6.421875 -21.609375 C 5.691406 -21.609375 5.179688 -21.285156 4.890625 -20.640625 C 4.597656 -19.992188 4.453125 -18.929688 4.453125 -17.453125 L 4.453125 -6.796875 C 4.453125 -4.984375 4.578125 -3.75 4.828125 -3.09375 C 5.085938 -2.445312 5.597656 -2.125 6.359375 -2.125 C 7.117188 -2.125 7.625 -2.453125 7.875 -3.109375 C 8.132812 -3.773438 8.265625 -5.003906 8.265625 -6.796875 Z M 8.265625 -17.4375 "/></g></g></g><g fill="#ffffff" fill-opacity="1"><g transform="translate(757.498176, 259.523034)"><g><path d="M 1.9375 -23.71875 L 6.90625 -23.71875 C 8.320312 -23.71875 9.335938 -23.425781 9.953125 -22.84375 C 10.578125 -22.257812 10.953125 -21.265625 11.078125 -19.859375 C 11.128906 -19.285156 11.15625 -18.390625 11.15625 -17.171875 C 11.15625 -15.953125 10.992188 -14.929688 10.671875 -14.109375 C 10.359375 -13.285156 9.796875 -12.75 8.984375 -12.5 C 9.578125 -12.40625 10.023438 -12.09375 10.328125 -11.5625 C 10.640625 -11.039062 10.859375 -10.207031 10.984375 -9.0625 C 11.109375 -7.914062 11.171875 -6.210938 11.171875 -3.953125 C 11.171875 -1.691406 11.242188 -0.375 11.390625 0 L 8.609375 0 C 8.460938 -0.289062 8.390625 -2.953125 8.390625 -7.984375 C 8.390625 -9.679688 8.222656 -10.664062 7.890625 -10.9375 C 7.554688 -11.21875 7.054688 -11.359375 6.390625 -11.359375 L 4.734375 -11.453125 L 4.734375 0 L 1.9375 0 Z M 8.390625 -17.90625 C 8.390625 -19.726562 8.222656 -20.78125 7.890625 -21.0625 C 7.566406 -21.351562 7.097656 -21.5 6.484375 -21.5 L 4.734375 -21.5 L 4.734375 -13.5 L 6.5 -13.5 C 7.039062 -13.5 7.4375 -13.601562 7.6875 -13.8125 C 7.945312 -14.019531 8.128906 -14.414062 8.234375 -15 C 8.335938 -15.582031 8.390625 -16.5 8.390625 -17.75 Z M 8.390625 -17.90625 "/></g></g></g><g fill="#ffffff" fill-opacity="1"><g transform="translate(777.048134, 259.523034)"><g><path d="M 12.03125 -23.71875 L 15.515625 -23.71875 L 15.515625 0 L 13.046875 0 L 13.046875 -9.515625 L 13.265625 -18.375 L 10.046875 -0.046875 L 7.53125 -0.046875 L 4.171875 -18.375 L 4.40625 -9.515625 L 4.40625 0 L 1.9375 0 L 1.9375 -23.71875 L 5.421875 -23.71875 L 8.8125 -4.21875 Z M 12.03125 -23.71875 "/></g></g></g><g fill="#ffffff" fill-opacity="1"><g transform="translate(801.219875, 259.523034)"><g><path d="M 3.625 -27.046875 L 9.28125 -29.390625 L 9.28125 -26.703125 L 3.625 -25.546875 Z M 4.484375 -23.71875 L 7.84375 -23.71875 L 11.765625 0 L 9.140625 0 L 8.46875 -4.53125 L 4.15625 -4.53125 L 3.546875 0 L 0.890625 0 Z M 4.46875 -6.796875 L 8.109375 -6.796875 L 6.234375 -19.328125 L 6.203125 -19.328125 Z M 4.46875 -6.796875 "/></g></g></g><g fill="#ffffff" fill-opacity="1"><g transform="translate(820.581178, 259.523034)"><g><path d="M 0.375 -23.71875 L 8.203125 -23.71875 L 8.203125 -21.390625 L 5.765625 -21.390625 L 5.765625 0 L 2.984375 0 L 2.984375 -21.390625 L 0.375 -21.390625 Z M 0.375 -23.71875 "/></g></g></g><g fill="#ffffff" fill-opacity="1"><g transform="translate(835.873152, 259.523034)"><g><path d="M 2.15625 -23.71875 L 4.9375 -23.71875 L 4.9375 0 L 2.15625 0 Z M 2.15625 -23.71875 "/></g></g></g><g fill="#ffffff" fill-opacity="1"><g transform="translate(849.682906, 259.523034)"><g><path d="M 1.671875 -16.875 C 1.671875 -18.664062 1.816406 -19.984375 2.109375 -20.828125 C 2.410156 -21.671875 2.734375 -22.289062 3.078125 -22.6875 C 3.847656 -23.550781 4.960938 -23.988281 6.421875 -24 C 8.472656 -23.988281 9.796875 -23.082031 10.390625 -21.28125 C 10.734375 -20.25 10.90625 -18.878906 10.90625 -17.171875 L 10.90625 -14.53125 L 8.171875 -14.53125 L 8.171875 -17.171875 C 8.171875 -18.691406 8.085938 -19.71875 7.921875 -20.25 C 7.753906 -20.789062 7.550781 -21.144531 7.3125 -21.3125 C 7.082031 -21.488281 6.785156 -21.578125 6.421875 -21.578125 C 5.679688 -21.578125 5.164062 -21.222656 4.875 -20.515625 C 4.59375 -19.816406 4.453125 -18.707031 4.453125 -17.1875 L 4.453125 -6.921875 C 4.453125 -5.128906 4.582031 -3.875 4.84375 -3.15625 C 5.101562 -2.445312 5.597656 -2.09375 6.328125 -2.09375 C 7.054688 -2.09375 7.546875 -2.453125 7.796875 -3.171875 C 8.046875 -3.890625 8.171875 -5.144531 8.171875 -6.9375 L 8.171875 -9.5625 L 10.921875 -9.5625 L 10.921875 -6.96875 C 10.921875 -4.476562 10.582031 -2.644531 9.90625 -1.46875 C 9.226562 -0.300781 8.046875 0.28125 6.359375 0.28125 C 4.671875 0.28125 3.46875 -0.320312 2.75 -1.53125 C 2.03125 -2.738281 1.671875 -4.5625 1.671875 -7 Z M 1.671875 -16.875 "/></g></g></g><g fill="#ffffff" fill-opacity="1"><g transform="translate(868.761247, 259.523034)"><g><path d="M 4.484375 -23.71875 L 7.84375 -23.71875 L 11.765625 0 L 9.140625 0 L 8.46875 -4.53125 L 4.15625 -4.53125 L 3.546875 0 L 0.890625 0 Z M 4.46875 -6.796875 L 8.109375 -6.796875 L 6.234375 -19.328125 L 6.203125 -19.328125 Z M 4.46875 -6.796875 "/></g></g></g><g fill="#ffffff" fill-opacity="0.4"><g transform="translate(70.335328, 240.313048)"><g><path d="M 45.1875 1.578125 C 37.425781 1.578125 30.390625 0.0664062 24.078125 -2.953125 C 17.765625 -5.984375 12.796875 -10.425781 9.171875 -16.28125 C 5.554688 -22.132812 3.75 -29.207031 3.75 -37.5 L 3.75 -79.921875 L 37.09375 -79.921875 L 37.09375 -39.46875 C 37.09375 -36.4375 37.71875 -34.03125 38.96875 -32.25 C 40.21875 -30.476562 42.160156 -29.59375 44.796875 -29.59375 C 47.296875 -29.59375 49.171875 -30.414062 50.421875 -32.0625 C 51.671875 -33.707031 52.296875 -36.046875 52.296875 -39.078125 L 52.296875 -169.5 L 86.4375 -169.5 L 86.4375 -42.421875 C 86.4375 -33.609375 84.691406 -25.878906 81.203125 -19.234375 C 77.710938 -12.597656 72.84375 -7.46875 66.59375 -3.84375 C 60.34375 -0.226562 53.207031 1.578125 45.1875 1.578125 Z M 45.1875 1.578125 "/></g></g></g><g fill="#ffffff" fill-opacity="0.4"><g transform="translate(213.787679, 240.313048)"><g><path d="M 47.75 1.578125 C 32.363281 1.578125 21.25 -2.234375 14.40625 -9.859375 C 7.5625 -17.492188 4.140625 -29.796875 4.140625 -46.765625 L 4.140625 -63.34375 L 37.5 -63.34375 L 37.5 -42.234375 C 37.5 -33.804688 40.191406 -29.59375 45.578125 -29.59375 C 48.609375 -29.59375 50.710938 -30.476562 51.890625 -32.25 C 53.078125 -34.03125 53.671875 -37.023438 53.671875 -41.234375 C 53.671875 -46.765625 53.015625 -51.335938 51.703125 -54.953125 C 50.390625 -58.566406 48.710938 -61.59375 46.671875 -64.03125 C 44.628906 -66.46875 40.976562 -70.25 35.71875 -75.375 L 21.109375 -89.984375 C 9.796875 -101.035156 4.140625 -113.269531 4.140625 -126.6875 C 4.140625 -141.15625 7.460938 -152.171875 14.109375 -159.734375 C 20.753906 -167.296875 30.457031 -171.078125 43.21875 -171.078125 C 58.476562 -171.078125 69.460938 -167.03125 76.171875 -158.9375 C 82.878906 -150.851562 86.234375 -138.195312 86.234375 -120.96875 L 51.703125 -120.96875 L 51.5 -132.609375 C 51.5 -134.835938 50.875 -136.609375 49.625 -137.921875 C 48.375 -139.242188 46.632812 -139.90625 44.40625 -139.90625 C 41.769531 -139.90625 39.789062 -139.179688 38.46875 -137.734375 C 37.15625 -136.285156 36.5 -134.3125 36.5 -131.8125 C 36.5 -126.289062 39.660156 -120.566406 45.984375 -114.640625 L 65.703125 -95.703125 C 70.304688 -91.234375 74.117188 -86.988281 77.140625 -82.96875 C 80.171875 -78.957031 82.609375 -74.222656 84.453125 -68.765625 C 86.296875 -63.304688 87.21875 -56.828125 87.21875 -49.328125 C 87.21875 -32.617188 84.160156 -19.957031 78.046875 -11.34375 C 71.929688 -2.726562 61.832031 1.578125 47.75 1.578125 Z M 47.75 1.578125 "/></g></g></g><g fill="#ffffff" fill-opacity="0.4"><g transform="translate(356.253495, 240.313048)"><g><path d="M 7.5 -169.5 L 54.265625 -169.5 C 66.367188 -169.5 75.445312 -166.144531 81.5 -159.4375 C 87.550781 -152.726562 90.640625 -142.796875 90.765625 -129.640625 L 91.171875 -50.3125 C 91.296875 -33.613281 88.398438 -21.050781 82.484375 -12.625 C 76.566406 -4.207031 66.765625 0 53.078125 0 L 7.5 0 Z M 47.5625 -30 C 53.738281 -30 56.828125 -33.023438 56.828125 -39.078125 L 56.828125 -126.484375 C 56.828125 -130.296875 56.53125 -133.15625 55.9375 -135.0625 C 55.34375 -136.976562 54.253906 -138.265625 52.671875 -138.921875 C 51.097656 -139.578125 48.671875 -139.90625 45.390625 -139.90625 L 41.640625 -139.90625 L 41.640625 -30 Z M 47.5625 -30 "/></g></g></g><g fill="#ffffff" fill-opacity="1"><g transform="translate(64.753565, 234.731285)"><g><path d="M 45.1875 1.578125 C 37.425781 1.578125 30.390625 0.0664062 24.078125 -2.953125 C 17.765625 -5.984375 12.796875 -10.425781 9.171875 -16.28125 C 5.554688 -22.132812 3.75 -29.207031 3.75 -37.5 L 3.75 -79.921875 L 37.09375 -79.921875 L 37.09375 -39.46875 C 37.09375 -36.4375 37.71875 -34.03125 38.96875 -32.25 C 40.21875 -30.476562 42.160156 -29.59375 44.796875 -29.59375 C 47.296875 -29.59375 49.171875 -30.414062 50.421875 -32.0625 C 51.671875 -33.707031 52.296875 -36.046875 52.296875 -39.078125 L 52.296875 -169.5 L 86.4375 -169.5 L 86.4375 -42.421875 C 86.4375 -33.609375 84.691406 -25.878906 81.203125 -19.234375 C 77.710938 -12.597656 72.84375 -7.46875 66.59375 -3.84375 C 60.34375 -0.226562 53.207031 1.578125 45.1875 1.578125 Z M 45.1875 1.578125 "/></g></g></g><g fill="#ffffff" fill-opacity="1"><g transform="translate(208.205916, 234.731285)"><g><path d="M 47.75 1.578125 C 32.363281 1.578125 21.25 -2.234375 14.40625 -9.859375 C 7.5625 -17.492188 4.140625 -29.796875 4.140625 -46.765625 L 4.140625 -63.34375 L 37.5 -63.34375 L 37.5 -42.234375 C 37.5 -33.804688 40.191406 -29.59375 45.578125 -29.59375 C 48.609375 -29.59375 50.710938 -30.476562 51.890625 -32.25 C 53.078125 -34.03125 53.671875 -37.023438 53.671875 -41.234375 C 53.671875 -46.765625 53.015625 -51.335938 51.703125 -54.953125 C 50.390625 -58.566406 48.710938 -61.59375 46.671875 -64.03125 C 44.628906 -66.46875 40.976562 -70.25 35.71875 -75.375 L 21.109375 -89.984375 C 9.796875 -101.035156 4.140625 -113.269531 4.140625 -126.6875 C 4.140625 -141.15625 7.460938 -152.171875 14.109375 -159.734375 C 20.753906 -167.296875 30.457031 -171.078125 43.21875 -171.078125 C 58.476562 -171.078125 69.460938 -167.03125 76.171875 -158.9375 C 82.878906 -150.851562 86.234375 -138.195312 86.234375 -120.96875 L 51.703125 -120.96875 L 51.5 -132.609375 C 51.5 -134.835938 50.875 -136.609375 49.625 -137.921875 C 48.375 -139.242188 46.632812 -139.90625 44.40625 -139.90625 C 41.769531 -139.90625 39.789062 -139.179688 38.46875 -137.734375 C 37.15625 -136.285156 36.5 -134.3125 36.5 -131.8125 C 36.5 -126.289062 39.660156 -120.566406 45.984375 -114.640625 L 65.703125 -95.703125 C 70.304688 -91.234375 74.117188 -86.988281 77.140625 -82.96875 C 80.171875 -78.957031 82.609375 -74.222656 84.453125 -68.765625 C 86.296875 -63.304688 87.21875 -56.828125 87.21875 -49.328125 C 87.21875 -32.617188 84.160156 -19.957031 78.046875 -11.34375 C 71.929688 -2.726562 61.832031 1.578125 47.75 1.578125 Z M 47.75 1.578125 "/></g></g></g><g fill="#ffffff" fill-opacity="1"><g transform="translate(350.671731, 234.731285)"><g><path d="M 7.5 -169.5 L 54.265625 -169.5 C 66.367188 -169.5 75.445312 -166.144531 81.5 -159.4375 C 87.550781 -152.726562 90.640625 -142.796875 90.765625 -129.640625 L 91.171875 -50.3125 C 91.296875 -33.613281 88.398438 -21.050781 82.484375 -12.625 C 76.566406 -4.207031 66.765625 0 53.078125 0 L 7.5 0 Z M 47.5625 -30 C 53.738281 -30 56.828125 -33.023438 56.828125 -39.078125 L 56.828125 -126.484375 C 56.828125 -130.296875 56.53125 -133.15625 55.9375 -135.0625 C 55.34375 -136.976562 54.253906 -138.265625 52.671875 -138.921875 C 51.097656 -139.578125 48.671875 -139.90625 45.390625 -139.90625 L 41.640625 -139.90625 L 41.640625 -30 Z M 47.5625 -30 "/></g></g></g><g fill="#b4bfe9" fill-opacity="1"><g transform="translate(133.321635, 299.037428)"><g><path d="M 5.859375 0.203125 C 4.847656 0.203125 3.929688 0.0078125 3.109375 -0.375 C 2.296875 -0.769531 1.65625 -1.347656 1.1875 -2.109375 C 0.71875 -2.867188 0.484375 -3.785156 0.484375 -4.859375 L 0.484375 -10.359375 L 4.8125 -10.359375 L 4.8125 -5.109375 C 4.8125 -4.722656 4.890625 -4.410156 5.046875 -4.171875 C 5.210938 -3.941406 5.460938 -3.828125 5.796875 -3.828125 C 6.117188 -3.828125 6.363281 -3.929688 6.53125 -4.140625 C 6.695312 -4.359375 6.78125 -4.664062 6.78125 -5.0625 L 6.78125 -21.953125 L 11.203125 -21.953125 L 11.203125 -5.5 C 11.203125 -4.351562 10.972656 -3.347656 10.515625 -2.484375 C 10.066406 -1.628906 9.4375 -0.96875 8.625 -0.5 C 7.8125 -0.03125 6.890625 0.203125 5.859375 0.203125 Z M 5.859375 0.203125 "/></g></g></g><g fill="#b4bfe9" fill-opacity="1"><g transform="translate(151.443671, 299.037428)"><g><path d="M 6.0625 0.203125 C 4.25 0.203125 2.90625 -0.304688 2.03125 -1.328125 C 1.15625 -2.347656 0.71875 -3.863281 0.71875 -5.875 L 0.71875 -21.953125 L 4.984375 -21.953125 L 4.984375 -6.0625 C 4.984375 -5.363281 5.050781 -4.816406 5.1875 -4.421875 C 5.320312 -4.023438 5.613281 -3.828125 6.0625 -3.828125 C 6.5 -3.828125 6.785156 -4.019531 6.921875 -4.40625 C 7.054688 -4.789062 7.125 -5.34375 7.125 -6.0625 L 7.125 -21.953125 L 11.40625 -21.953125 L 11.40625 -5.875 C 11.40625 -3.863281 10.960938 -2.347656 10.078125 -1.328125 C 9.203125 -0.304688 7.863281 0.203125 6.0625 0.203125 Z M 6.0625 0.203125 "/></g></g></g><g fill="#b4bfe9" fill-opacity="1"><g transform="translate(169.770178, 299.037428)"><g><path d="M 0.96875 0 L 0.96875 -21.953125 L 5.5 -21.953125 L 7.515625 -11.453125 L 7.515625 -21.953125 L 11.765625 -21.953125 L 11.765625 0 L 7.46875 0 L 5.265625 -10.984375 L 5.265625 0 Z M 0.96875 0 "/></g></g></g><g fill="#b4bfe9" fill-opacity="1"><g transform="translate(188.710086, 299.037428)"><g><path d="M 0.765625 0 L 0.765625 -21.953125 L 5.015625 -21.953125 L 5.015625 0 Z M 0.765625 0 "/></g></g></g><g fill="#b4bfe9" fill-opacity="1"><g transform="translate(200.723623, 299.037428)"><g><path d="M 6.21875 0.203125 C 4.4375 0.203125 3.085938 -0.335938 2.171875 -1.421875 C 1.253906 -2.503906 0.796875 -4.023438 0.796875 -5.984375 L 0.796875 -16.4375 C 0.796875 -18.332031 1.253906 -19.757812 2.171875 -20.71875 C 3.085938 -21.675781 4.4375 -22.15625 6.21875 -22.15625 C 7.988281 -22.15625 9.332031 -21.675781 10.25 -20.71875 C 11.164062 -19.757812 11.625 -18.332031 11.625 -16.4375 L 11.625 -5.984375 C 11.625 -4.003906 11.164062 -2.476562 10.25 -1.40625 C 9.332031 -0.332031 7.988281 0.203125 6.21875 0.203125 Z M 6.21875 -3.828125 C 6.601562 -3.828125 6.863281 -4 7 -4.34375 C 7.132812 -4.6875 7.203125 -5.164062 7.203125 -5.78125 L 7.203125 -16.515625 C 7.203125 -16.992188 7.140625 -17.378906 7.015625 -17.671875 C 6.890625 -17.972656 6.628906 -18.125 6.234375 -18.125 C 5.503906 -18.125 5.140625 -17.570312 5.140625 -16.46875 L 5.140625 -5.75 C 5.140625 -5.125 5.210938 -4.644531 5.359375 -4.3125 C 5.515625 -3.988281 5.800781 -3.828125 6.21875 -3.828125 Z M 6.21875 -3.828125 "/></g></g></g><g fill="#b4bfe9" fill-opacity="1"><g transform="translate(219.356835, 299.037428)"><g><path d="M 0.96875 -21.953125 L 7.71875 -21.953125 C 8.789062 -21.953125 9.617188 -21.707031 10.203125 -21.21875 C 10.796875 -20.738281 11.191406 -20.0625 11.390625 -19.1875 C 11.597656 -18.3125 11.703125 -17.191406 11.703125 -15.828125 C 11.703125 -14.578125 11.539062 -13.601562 11.21875 -12.90625 C 10.894531 -12.207031 10.332031 -11.722656 9.53125 -11.453125 C 10.195312 -11.316406 10.675781 -10.984375 10.96875 -10.453125 C 11.269531 -9.921875 11.421875 -9.207031 11.421875 -8.3125 L 11.375 0 L 7.078125 0 L 7.078125 -8.59375 C 7.078125 -9.207031 6.957031 -9.597656 6.71875 -9.765625 C 6.476562 -9.929688 6.046875 -10.015625 5.421875 -10.015625 L 5.421875 0 L 0.96875 0 Z M 6.5 -13.828125 C 7.101562 -13.828125 7.40625 -14.492188 7.40625 -15.828125 C 7.40625 -16.398438 7.378906 -16.832031 7.328125 -17.125 C 7.285156 -17.414062 7.191406 -17.613281 7.046875 -17.71875 C 6.910156 -17.832031 6.71875 -17.890625 6.46875 -17.890625 L 5.4375 -17.890625 L 5.4375 -13.828125 Z M 6.5 -13.828125 "/></g></g></g><g fill="#b4bfe9" fill-opacity="1"><g transform="translate(237.76002, 299.037428)"><g/></g></g><g fill="#b4bfe9" fill-opacity="1"><g transform="translate(249.952462, 299.037428)"><g><path d="M 6.078125 0.203125 C 4.484375 0.203125 3.203125 -0.296875 2.234375 -1.296875 C 1.273438 -2.304688 0.796875 -3.6875 0.796875 -5.4375 L 0.796875 -15.5625 C 0.796875 -17.75 1.226562 -19.394531 2.09375 -20.5 C 2.96875 -21.601562 4.332031 -22.15625 6.1875 -22.15625 C 7.800781 -22.15625 9.101562 -21.710938 10.09375 -20.828125 C 11.082031 -19.941406 11.578125 -18.664062 11.578125 -17 L 11.578125 -13.21875 L 7.203125 -13.21875 L 7.203125 -16.46875 C 7.203125 -17.09375 7.125 -17.523438 6.96875 -17.765625 C 6.820312 -18.003906 6.5625 -18.125 6.1875 -18.125 C 5.789062 -18.125 5.519531 -17.988281 5.375 -17.71875 C 5.226562 -17.445312 5.15625 -17.046875 5.15625 -16.515625 L 5.15625 -5.5 C 5.15625 -4.914062 5.238281 -4.488281 5.40625 -4.21875 C 5.582031 -3.957031 5.84375 -3.828125 6.1875 -3.828125 C 6.863281 -3.828125 7.203125 -4.382812 7.203125 -5.5 L 7.203125 -9.453125 L 11.625 -9.453125 L 11.625 -5.3125 C 11.625 -1.632812 9.773438 0.203125 6.078125 0.203125 Z M 6.078125 0.203125 "/></g></g></g><g fill="#b4bfe9" fill-opacity="1"><g transform="translate(268.278973, 299.037428)"><g><path d="M 6.21875 0.203125 C 4.4375 0.203125 3.085938 -0.335938 2.171875 -1.421875 C 1.253906 -2.503906 0.796875 -4.023438 0.796875 -5.984375 L 0.796875 -16.4375 C 0.796875 -18.332031 1.253906 -19.757812 2.171875 -20.71875 C 3.085938 -21.675781 4.4375 -22.15625 6.21875 -22.15625 C 7.988281 -22.15625 9.332031 -21.675781 10.25 -20.71875 C 11.164062 -19.757812 11.625 -18.332031 11.625 -16.4375 L 11.625 -5.984375 C 11.625 -4.003906 11.164062 -2.476562 10.25 -1.40625 C 9.332031 -0.332031 7.988281 0.203125 6.21875 0.203125 Z M 6.21875 -3.828125 C 6.601562 -3.828125 6.863281 -4 7 -4.34375 C 7.132812 -4.6875 7.203125 -5.164062 7.203125 -5.78125 L 7.203125 -16.515625 C 7.203125 -16.992188 7.140625 -17.378906 7.015625 -17.671875 C 6.890625 -17.972656 6.628906 -18.125 6.234375 -18.125 C 5.503906 -18.125 5.140625 -17.570312 5.140625 -16.46875 L 5.140625 -5.75 C 5.140625 -5.125 5.210938 -4.644531 5.359375 -4.3125 C 5.515625 -3.988281 5.800781 -3.828125 6.21875 -3.828125 Z M 6.21875 -3.828125 "/></g></g></g><g fill="#b4bfe9" fill-opacity="1"><g transform="translate(286.912184, 299.037428)"><g><path d="M 0.96875 0 L 0.96875 -21.953125 L 7.671875 -21.953125 L 9.515625 -8.5625 L 11.34375 -21.953125 L 18.09375 -21.953125 L 18.09375 0 L 14.078125 0 L 14.078125 -15.828125 L 11.546875 0 L 7.625 0 L 4.9375 -15.828125 L 4.9375 0 Z M 0.96875 0 "/></g></g></g><g fill="#b4bfe9" fill-opacity="1"><g transform="translate(312.190625, 299.037428)"><g><path d="M 0.96875 -21.953125 L 6.78125 -21.953125 C 8.53125 -21.953125 9.78125 -21.382812 10.53125 -20.25 C 11.28125 -19.125 11.65625 -17.46875 11.65625 -15.28125 C 11.65625 -13.101562 11.320312 -11.457031 10.65625 -10.34375 C 9.988281 -9.238281 8.796875 -8.6875 7.078125 -8.6875 L 5.296875 -8.6875 L 5.296875 0 L 0.96875 0 Z M 5.546875 -12.65625 C 6.078125 -12.65625 6.460938 -12.75 6.703125 -12.9375 C 6.953125 -13.132812 7.113281 -13.414062 7.1875 -13.78125 C 7.269531 -14.15625 7.3125 -14.679688 7.3125 -15.359375 C 7.3125 -16.285156 7.207031 -16.953125 7 -17.359375 C 6.800781 -17.765625 6.394531 -17.96875 5.78125 -17.96875 L 5.296875 -17.96875 L 5.296875 -12.65625 Z M 5.546875 -12.65625 "/></g></g></g><g fill="#b4bfe9" fill-opacity="1"><g transform="translate(330.466014, 299.037428)"><g><path d="M 0.390625 0 L 2.5 -21.953125 L 9.9375 -21.953125 L 12.046875 0 L 7.875 0 L 7.5625 -3.546875 L 4.90625 -3.546875 L 4.65625 0 Z M 5.234375 -7.0625 L 7.234375 -7.0625 L 6.265625 -18.21875 L 6.0625 -18.21875 Z M 5.234375 -7.0625 "/></g></g></g><g fill="#b4bfe9" fill-opacity="1"><g transform="translate(349.073671, 299.037428)"><g><path d="M 0.96875 0 L 0.96875 -21.953125 L 5.5 -21.953125 L 7.515625 -11.453125 L 7.515625 -21.953125 L 11.765625 -21.953125 L 11.765625 0 L 7.46875 0 L 5.265625 -10.984375 L 5.265625 0 Z M 0.96875 0 "/></g></g></g><g fill="#b4bfe9" fill-opacity="1"><g transform="translate(368.013573, 299.037428)"><g><path d="M 3.625 0 L 3.625 -7.234375 L 0.125 -21.953125 L 4.46875 -21.953125 L 5.703125 -14.515625 L 6.921875 -21.953125 L 11.265625 -21.953125 L 7.765625 -7.234375 L 7.765625 0 Z M 3.625 0 "/></g></g></g><g fill="#b4bfe9" fill-opacity="1"><g transform="translate(79.075546, 334.287425)"><g><path d="M 6.1875 0.203125 C 4.195312 0.203125 2.753906 -0.289062 1.859375 -1.28125 C 0.972656 -2.269531 0.53125 -3.863281 0.53125 -6.0625 L 0.53125 -8.203125 L 4.859375 -8.203125 L 4.859375 -5.46875 C 4.859375 -4.375 5.207031 -3.828125 5.90625 -3.828125 C 6.300781 -3.828125 6.570312 -3.941406 6.71875 -4.171875 C 6.875 -4.410156 6.953125 -4.800781 6.953125 -5.34375 C 6.953125 -6.0625 6.863281 -6.65625 6.6875 -7.125 C 6.519531 -7.59375 6.304688 -7.984375 6.046875 -8.296875 C 5.785156 -8.609375 5.3125 -9.097656 4.625 -9.765625 L 2.734375 -11.65625 C 1.265625 -13.082031 0.53125 -14.664062 0.53125 -16.40625 C 0.53125 -18.28125 0.960938 -19.707031 1.828125 -20.6875 C 2.691406 -21.664062 3.945312 -22.15625 5.59375 -22.15625 C 7.570312 -22.15625 8.992188 -21.628906 9.859375 -20.578125 C 10.734375 -19.535156 11.171875 -17.898438 11.171875 -15.671875 L 6.703125 -15.671875 L 6.671875 -17.171875 C 6.671875 -17.460938 6.585938 -17.691406 6.421875 -17.859375 C 6.265625 -18.035156 6.039062 -18.125 5.75 -18.125 C 5.40625 -18.125 5.148438 -18.03125 4.984375 -17.84375 C 4.816406 -17.65625 4.734375 -17.398438 4.734375 -17.078125 C 4.734375 -16.359375 5.140625 -15.617188 5.953125 -14.859375 L 8.515625 -12.390625 C 9.109375 -11.816406 9.597656 -11.269531 9.984375 -10.75 C 10.378906 -10.226562 10.695312 -9.613281 10.9375 -8.90625 C 11.175781 -8.195312 11.296875 -7.359375 11.296875 -6.390625 C 11.296875 -4.222656 10.898438 -2.582031 10.109375 -1.46875 C 9.316406 -0.351562 8.007812 0.203125 6.1875 0.203125 Z M 6.1875 0.203125 "/></g></g></g><g fill="#b4bfe9" fill-opacity="1"><g transform="translate(97.069785, 334.287425)"><g><path d="M 6.21875 0.203125 C 4.4375 0.203125 3.085938 -0.335938 2.171875 -1.421875 C 1.253906 -2.503906 0.796875 -4.023438 0.796875 -5.984375 L 0.796875 -16.4375 C 0.796875 -18.332031 1.253906 -19.757812 2.171875 -20.71875 C 3.085938 -21.675781 4.4375 -22.15625 6.21875 -22.15625 C 7.988281 -22.15625 9.332031 -21.675781 10.25 -20.71875 C 11.164062 -19.757812 11.625 -18.332031 11.625 -16.4375 L 11.625 -5.984375 C 11.625 -4.003906 11.164062 -2.476562 10.25 -1.40625 C 9.332031 -0.332031 7.988281 0.203125 6.21875 0.203125 Z M 6.21875 -3.828125 C 6.601562 -3.828125 6.863281 -4 7 -4.34375 C 7.132812 -4.6875 7.203125 -5.164062 7.203125 -5.78125 L 7.203125 -16.515625 C 7.203125 -16.992188 7.140625 -17.378906 7.015625 -17.671875 C 6.890625 -17.972656 6.628906 -18.125 6.234375 -18.125 C 5.503906 -18.125 5.140625 -17.570312 5.140625 -16.46875 L 5.140625 -5.75 C 5.140625 -5.125 5.210938 -4.644531 5.359375 -4.3125 C 5.515625 -3.988281 5.800781 -3.828125 6.21875 -3.828125 Z M 6.21875 -3.828125 "/></g></g></g><g fill="#b4bfe9" fill-opacity="1"><g transform="translate(115.702994, 334.287425)"><g><path d="M 0.96875 0 L 0.96875 -21.953125 L 9.765625 -21.953125 L 9.765625 -17.6875 L 5.390625 -17.6875 L 5.390625 -14.1875 L 9.53125 -14.1875 L 9.53125 -9.96875 L 5.390625 -9.96875 L 5.390625 0 Z M 0.96875 0 "/></g></g></g><g fill="#b4bfe9" fill-opacity="1"><g transform="translate(132.112601, 334.287425)"><g><path d="M 2.859375 0 L 2.859375 -17.734375 L 0.25 -17.734375 L 0.25 -21.953125 L 9.859375 -21.953125 L 9.859375 -17.734375 L 7.265625 -17.734375 L 7.265625 0 Z M 2.859375 0 "/></g></g></g><g fill="#b4bfe9" fill-opacity="1"><g transform="translate(148.445539, 334.287425)"><g><path d="M 2.6875 0 L 0.328125 -21.953125 L 4.625 -21.953125 L 5.859375 -8.109375 L 7.078125 -21.953125 L 11.171875 -21.953125 L 12.34375 -8.109375 L 13.515625 -21.953125 L 17.875 -21.953125 L 15.46875 0 L 10.203125 0 L 9.09375 -10.578125 L 8.046875 0 Z M 2.6875 0 "/></g></g></g><g fill="#b4bfe9" fill-opacity="1"><g transform="translate(172.854995, 334.287425)"><g><path d="M 0.390625 0 L 2.5 -21.953125 L 9.9375 -21.953125 L 12.046875 0 L 7.875 0 L 7.5625 -3.546875 L 4.90625 -3.546875 L 4.65625 0 Z M 5.234375 -7.0625 L 7.234375 -7.0625 L 6.265625 -18.21875 L 6.0625 -18.21875 Z M 5.234375 -7.0625 "/></g></g></g><g fill="#b4bfe9" fill-opacity="1"><g transform="translate(191.462651, 334.287425)"><g><path d="M 0.96875 -21.953125 L 7.71875 -21.953125 C 8.789062 -21.953125 9.617188 -21.707031 10.203125 -21.21875 C 10.796875 -20.738281 11.191406 -20.0625 11.390625 -19.1875 C 11.597656 -18.3125 11.703125 -17.191406 11.703125 -15.828125 C 11.703125 -14.578125 11.539062 -13.601562 11.21875 -12.90625 C 10.894531 -12.207031 10.332031 -11.722656 9.53125 -11.453125 C 10.195312 -11.316406 10.675781 -10.984375 10.96875 -10.453125 C 11.269531 -9.921875 11.421875 -9.207031 11.421875 -8.3125 L 11.375 0 L 7.078125 0 L 7.078125 -8.59375 C 7.078125 -9.207031 6.957031 -9.597656 6.71875 -9.765625 C 6.476562 -9.929688 6.046875 -10.015625 5.421875 -10.015625 L 5.421875 0 L 0.96875 0 Z M 6.5 -13.828125 C 7.101562 -13.828125 7.40625 -14.492188 7.40625 -15.828125 C 7.40625 -16.398438 7.378906 -16.832031 7.328125 -17.125 C 7.285156 -17.414062 7.191406 -17.613281 7.046875 -17.71875 C 6.910156 -17.832031 6.71875 -17.890625 6.46875 -17.890625 L 5.4375 -17.890625 L 5.4375 -13.828125 Z M 6.5 -13.828125 "/></g></g></g><g fill="#b4bfe9" fill-opacity="1"><g transform="translate(209.865836, 334.287425)"><g><path d="M 0.96875 0 L 0.96875 -21.953125 L 9.765625 -21.953125 L 9.765625 -17.71875 L 5.4375 -17.71875 L 5.4375 -13.453125 L 9.59375 -13.453125 L 9.59375 -9.3125 L 5.4375 -9.3125 L 5.4375 -4.265625 L 10.046875 -4.265625 L 10.046875 0 Z M 0.96875 0 "/></g></g></g><g fill="#b4bfe9" fill-opacity="1"><g transform="translate(226.607718, 334.287425)"><g/></g></g><g fill="#b4bfe9" fill-opacity="1"><g transform="translate(238.800161, 334.287425)"><g><path d="M 0.96875 -21.953125 L 7.03125 -21.953125 C 8.59375 -21.953125 9.765625 -21.515625 10.546875 -20.640625 C 11.335938 -19.773438 11.742188 -18.492188 11.765625 -16.796875 L 11.8125 -6.515625 C 11.820312 -4.347656 11.441406 -2.71875 10.671875 -1.625 C 9.910156 -0.539062 8.644531 0 6.875 0 L 0.96875 0 Z M 6.15625 -3.890625 C 6.957031 -3.890625 7.359375 -4.28125 7.359375 -5.0625 L 7.359375 -16.390625 C 7.359375 -16.878906 7.316406 -17.25 7.234375 -17.5 C 7.160156 -17.75 7.019531 -17.914062 6.8125 -18 C 6.613281 -18.082031 6.300781 -18.125 5.875 -18.125 L 5.390625 -18.125 L 5.390625 -3.890625 Z M 6.15625 -3.890625 "/></g></g></g><g fill="#b4bfe9" fill-opacity="1"><g transform="translate(257.612278, 334.287425)"><g><path d="M 0.96875 0 L 0.96875 -21.953125 L 9.765625 -21.953125 L 9.765625 -17.71875 L 5.4375 -17.71875 L 5.4375 -13.453125 L 9.59375 -13.453125 L 9.59375 -9.3125 L 5.4375 -9.3125 L 5.4375 -4.265625 L 10.046875 -4.265625 L 10.046875 0 Z M 0.96875 0 "/></g></g></g><g fill="#b4bfe9" fill-opacity="1"><g transform="translate(274.354148, 334.287425)"><g><path d="M 2.984375 0 L 0.28125 -21.984375 L 4.46875 -21.984375 L 6.078125 -7.03125 L 7.515625 -21.984375 L 11.703125 -21.984375 L 9 0 Z M 2.984375 0 "/></g></g></g><g fill="#b4bfe9" fill-opacity="1"><g transform="translate(292.552862, 334.287425)"><g><path d="M 0.96875 0 L 0.96875 -21.953125 L 9.765625 -21.953125 L 9.765625 -17.71875 L 5.4375 -17.71875 L 5.4375 -13.453125 L 9.59375 -13.453125 L 9.59375 -9.3125 L 5.4375 -9.3125 L 5.4375 -4.265625 L 10.046875 -4.265625 L 10.046875 0 Z M 0.96875 0 "/></g></g></g><g fill="#b4bfe9" fill-opacity="1"><g transform="translate(309.294743, 334.287425)"><g><path d="M 0.96875 0 L 0.96875 -21.953125 L 5.375 -21.953125 L 5.375 -3.734375 L 9.890625 -3.734375 L 9.890625 0 Z M 0.96875 0 "/></g></g></g><g fill="#b4bfe9" fill-opacity="1"><g transform="translate(325.653224, 334.287425)"><g><path d="M 6.21875 0.203125 C 4.4375 0.203125 3.085938 -0.335938 2.171875 -1.421875 C 1.253906 -2.503906 0.796875 -4.023438 0.796875 -5.984375 L 0.796875 -16.4375 C 0.796875 -18.332031 1.253906 -19.757812 2.171875 -20.71875 C 3.085938 -21.675781 4.4375 -22.15625 6.21875 -22.15625 C 7.988281 -22.15625 9.332031 -21.675781 10.25 -20.71875 C 11.164062 -19.757812 11.625 -18.332031 11.625 -16.4375 L 11.625 -5.984375 C 11.625 -4.003906 11.164062 -2.476562 10.25 -1.40625 C 9.332031 -0.332031 7.988281 0.203125 6.21875 0.203125 Z M 6.21875 -3.828125 C 6.601562 -3.828125 6.863281 -4 7 -4.34375 C 7.132812 -4.6875 7.203125 -5.164062 7.203125 -5.78125 L 7.203125 -16.515625 C 7.203125 -16.992188 7.140625 -17.378906 7.015625 -17.671875 C 6.890625 -17.972656 6.628906 -18.125 6.234375 -18.125 C 5.503906 -18.125 5.140625 -17.570312 5.140625 -16.46875 L 5.140625 -5.75 C 5.140625 -5.125 5.210938 -4.644531 5.359375 -4.3125 C 5.515625 -3.988281 5.800781 -3.828125 6.21875 -3.828125 Z M 6.21875 -3.828125 "/></g></g></g><g fill="#b4bfe9" fill-opacity="1"><g transform="translate(344.286424, 334.287425)"><g><path d="M 0.96875 -21.953125 L 6.78125 -21.953125 C 8.53125 -21.953125 9.78125 -21.382812 10.53125 -20.25 C 11.28125 -19.125 11.65625 -17.46875 11.65625 -15.28125 C 11.65625 -13.101562 11.320312 -11.457031 10.65625 -10.34375 C 9.988281 -9.238281 8.796875 -8.6875 7.078125 -8.6875 L 5.296875 -8.6875 L 5.296875 0 L 0.96875 0 Z M 5.546875 -12.65625 C 6.078125 -12.65625 6.460938 -12.75 6.703125 -12.9375 C 6.953125 -13.132812 7.113281 -13.414062 7.1875 -13.78125 C 7.269531 -14.15625 7.3125 -14.679688 7.3125 -15.359375 C 7.3125 -16.285156 7.207031 -16.953125 7 -17.359375 C 6.800781 -17.765625 6.394531 -17.96875 5.78125 -17.96875 L 5.296875 -17.96875 L 5.296875 -12.65625 Z M 5.546875 -12.65625 "/></g></g></g><g fill="#b4bfe9" fill-opacity="1"><g transform="translate(362.561814, 334.287425)"><g><path d="M 0.96875 0 L 0.96875 -21.953125 L 7.671875 -21.953125 L 9.515625 -8.5625 L 11.34375 -21.953125 L 18.09375 -21.953125 L 18.09375 0 L 14.078125 0 L 14.078125 -15.828125 L 11.546875 0 L 7.625 0 L 4.9375 -15.828125 L 4.9375 0 Z M 0.96875 0 "/></g></g></g><g fill="#b4bfe9" fill-opacity="1"><g transform="translate(387.840255, 334.287425)"><g><path d="M 0.96875 0 L 0.96875 -21.953125 L 9.765625 -21.953125 L 9.765625 -17.71875 L 5.4375 -17.71875 L 5.4375 -13.453125 L 9.59375 -13.453125 L 9.59375 -9.3125 L 5.4375 -9.3125 L 5.4375 -4.265625 L 10.046875 -4.265625 L 10.046875 0 Z M 0.96875 0 "/></g></g></g><g fill="#b4bfe9" fill-opacity="1"><g transform="translate(404.582136, 334.287425)"><g><path d="M 0.96875 0 L 0.96875 -21.953125 L 5.5 -21.953125 L 7.515625 -11.453125 L 7.515625 -21.953125 L 11.765625 -21.953125 L 11.765625 0 L 7.46875 0 L 5.265625 -10.984375 L 5.265625 0 Z M 0.96875 0 "/></g></g></g><g fill="#b4bfe9" fill-opacity="1"><g transform="translate(423.522037, 334.287425)"><g><path d="M 2.859375 0 L 2.859375 -17.734375 L 0.25 -17.734375 L 0.25 -21.953125 L 9.859375 -21.953125 L 9.859375 -17.734375 L 7.265625 -17.734375 L 7.265625 0 Z M 2.859375 0 "/></g></g></g></svg>