<svg xmlns="http://www.w3.org/2000/svg" xmlns:xlink="http://www.w3.org/1999/xlink" width="500" zoomAndPan="magnify" viewBox="0 0 375 374.999991" height="500" preserveAspectRatio="xMidYMid meet" version="1.0"><defs><g/><clipPath id="2dfbc4707a"><path d="M 187.5 0 C 83.945312 0 0 83.945312 0 187.5 C 0 291.054688 83.945312 375 187.5 375 C 291.054688 375 375 291.054688 375 187.5 C 375 83.945312 291.054688 0 187.5 0 Z M 187.5 0 " clip-rule="nonzero"/></clipPath><linearGradient x1="0" gradientTransform="matrix(1.464844, 0, 0, 1.464844, 0.0000045, 0)" y1="128" x2="255.999988" gradientUnits="userSpaceOnUse" y2="128" id="8b712a7c06"><stop stop-opacity="1" stop-color="rgb(14.498901%, 16.499329%, 23.899841%)" offset="0"/><stop stop-opacity="1" stop-color="rgb(14.511108%, 16.572571%, 24.0448%)" offset="0.0078125"/><stop stop-opacity="1" stop-color="rgb(14.535522%, 16.719055%, 24.336243%)" offset="0.015625"/><stop stop-opacity="1" stop-color="rgb(14.559937%, 16.86554%, 24.627686%)" offset="0.0234375"/><stop stop-opacity="1" stop-color="rgb(14.584351%, 17.01355%, 24.919128%)" offset="0.03125"/><stop stop-opacity="1" stop-color="rgb(14.608765%, 17.160034%, 25.210571%)" offset="0.0390625"/><stop stop-opacity="1" stop-color="rgb(14.631653%, 17.306519%, 25.500488%)" offset="0.046875"/><stop stop-opacity="1" stop-color="rgb(14.656067%, 17.453003%, 25.791931%)" offset="0.0546875"/><stop stop-opacity="1" stop-color="rgb(14.680481%, 17.601013%, 26.083374%)" offset="0.0625"/><stop stop-opacity="1" stop-color="rgb(14.704895%, 17.747498%, 26.374817%)" offset="0.0703125"/><stop stop-opacity="1" stop-color="rgb(14.729309%, 17.893982%, 26.66626%)" offset="0.078125"/><stop stop-opacity="1" stop-color="rgb(14.753723%, 18.040466%, 26.957703%)" offset="0.0859375"/><stop stop-opacity="1" stop-color="rgb(14.778137%, 18.188477%, 27.249146%)" offset="0.09375"/><stop stop-opacity="1" stop-color="rgb(14.802551%, 18.334961%, 27.540588%)" offset="0.101562"/><stop stop-opacity="1" stop-color="rgb(14.825439%, 18.481445%, 27.832031%)" offset="0.109375"/><stop stop-opacity="1" stop-color="rgb(14.849854%, 18.629456%, 28.123474%)" offset="0.117188"/><stop stop-opacity="1" stop-color="rgb(14.874268%, 18.77594%, 28.414917%)" offset="0.125"/><stop stop-opacity="1" stop-color="rgb(14.898682%, 18.922424%, 28.70636%)" offset="0.132812"/><stop stop-opacity="1" stop-color="rgb(14.923096%, 19.068909%, 28.997803%)" offset="0.140625"/><stop stop-opacity="1" stop-color="rgb(14.94751%, 19.216919%, 29.289246%)" offset="0.148438"/><stop stop-opacity="1" stop-color="rgb(14.971924%, 19.363403%, 29.580688%)" offset="0.15625"/><stop stop-opacity="1" stop-color="rgb(14.996338%, 19.509888%, 29.872131%)" offset="0.164062"/><stop stop-opacity="1" stop-color="rgb(15.019226%, 19.656372%, 30.163574%)" offset="0.171875"/><stop stop-opacity="1" stop-color="rgb(15.04364%, 19.804382%, 30.455017%)" offset="0.179688"/><stop stop-opacity="1" stop-color="rgb(15.068054%, 19.950867%, 30.74646%)" offset="0.1875"/><stop stop-opacity="1" stop-color="rgb(15.092468%, 20.097351%, 31.037903%)" offset="0.195312"/><stop stop-opacity="1" stop-color="rgb(15.116882%, 20.243835%, 31.329346%)" offset="0.203125"/><stop stop-opacity="1" stop-color="rgb(15.141296%, 20.391846%, 31.620789%)" offset="0.210938"/><stop stop-opacity="1" stop-color="rgb(15.16571%, 20.53833%, 31.912231%)" offset="0.21875"/><stop stop-opacity="1" stop-color="rgb(15.190125%, 20.684814%, 32.203674%)" offset="0.226562"/><stop stop-opacity="1" stop-color="rgb(15.213013%, 20.831299%, 32.495117%)" offset="0.234375"/><stop stop-opacity="1" stop-color="rgb(15.237427%, 20.979309%, 32.78656%)" offset="0.242188"/><stop stop-opacity="1" stop-color="rgb(15.261841%, 21.125793%, 33.078003%)" offset="0.25"/><stop stop-opacity="1" stop-color="rgb(15.286255%, 21.272278%, 33.369446%)" offset="0.257812"/><stop stop-opacity="1" stop-color="rgb(15.310669%, 21.418762%, 33.660889%)" offset="0.265625"/><stop stop-opacity="1" stop-color="rgb(15.335083%, 21.566772%, 33.952332%)" offset="0.273438"/><stop stop-opacity="1" stop-color="rgb(15.359497%, 21.713257%, 34.243774%)" offset="0.28125"/><stop stop-opacity="1" stop-color="rgb(15.382385%, 21.859741%, 34.535217%)" offset="0.289063"/><stop stop-opacity="1" stop-color="rgb(15.406799%, 22.006226%, 34.82666%)" offset="0.296875"/><stop stop-opacity="1" stop-color="rgb(15.431213%, 22.154236%, 35.118103%)" offset="0.304688"/><stop stop-opacity="1" stop-color="rgb(15.455627%, 22.30072%, 35.409546%)" offset="0.3125"/><stop stop-opacity="1" stop-color="rgb(15.480042%, 22.447205%, 35.700989%)" offset="0.320312"/><stop stop-opacity="1" stop-color="rgb(15.504456%, 22.593689%, 35.992432%)" offset="0.328125"/><stop stop-opacity="1" stop-color="rgb(15.52887%, 22.741699%, 36.283875%)" offset="0.335938"/><stop stop-opacity="1" stop-color="rgb(15.553284%, 22.888184%, 36.575317%)" offset="0.34375"/><stop stop-opacity="1" stop-color="rgb(15.576172%, 23.034668%, 36.86676%)" offset="0.351562"/><stop stop-opacity="1" stop-color="rgb(15.600586%, 23.181152%, 37.158203%)" offset="0.359375"/><stop stop-opacity="1" stop-color="rgb(15.625%, 23.329163%, 37.44812%)" offset="0.367188"/><stop stop-opacity="1" stop-color="rgb(15.649414%, 23.475647%, 37.739563%)" offset="0.375"/><stop stop-opacity="1" stop-color="rgb(15.673828%, 23.622131%, 38.031006%)" offset="0.382812"/><stop stop-opacity="1" stop-color="rgb(15.698242%, 23.768616%, 38.322449%)" offset="0.390625"/><stop stop-opacity="1" stop-color="rgb(15.722656%, 23.916626%, 38.613892%)" offset="0.398438"/><stop stop-opacity="1" stop-color="rgb(15.74707%, 24.06311%, 38.905334%)" offset="0.40625"/><stop stop-opacity="1" stop-color="rgb(15.769958%, 24.209595%, 39.196777%)" offset="0.414062"/><stop stop-opacity="1" stop-color="rgb(15.794373%, 24.357605%, 39.48822%)" offset="0.421875"/><stop stop-opacity="1" stop-color="rgb(15.818787%, 24.504089%, 39.779663%)" offset="0.429688"/><stop stop-opacity="1" stop-color="rgb(15.843201%, 24.650574%, 40.071106%)" offset="0.4375"/><stop stop-opacity="1" stop-color="rgb(15.867615%, 24.797058%, 40.362549%)" offset="0.445312"/><stop stop-opacity="1" stop-color="rgb(15.892029%, 24.945068%, 40.653992%)" offset="0.453125"/><stop stop-opacity="1" stop-color="rgb(15.916443%, 25.091553%, 40.945435%)" offset="0.460938"/><stop stop-opacity="1" stop-color="rgb(15.940857%, 25.238037%, 41.236877%)" offset="0.46875"/><stop stop-opacity="1" stop-color="rgb(15.963745%, 25.384521%, 41.52832%)" offset="0.476562"/><stop stop-opacity="1" stop-color="rgb(15.988159%, 25.532532%, 41.819763%)" offset="0.484375"/><stop stop-opacity="1" stop-color="rgb(16.012573%, 25.679016%, 42.111206%)" offset="0.492188"/><stop stop-opacity="1" stop-color="rgb(16.036987%, 25.8255%, 42.402649%)" offset="0.5"/><stop stop-opacity="1" stop-color="rgb(16.061401%, 25.971985%, 42.694092%)" offset="0.507812"/><stop stop-opacity="1" stop-color="rgb(16.085815%, 26.119995%, 42.985535%)" offset="0.515625"/><stop stop-opacity="1" stop-color="rgb(16.110229%, 26.266479%, 43.276978%)" offset="0.523438"/><stop stop-opacity="1" stop-color="rgb(16.134644%, 26.412964%, 43.56842%)" offset="0.53125"/><stop stop-opacity="1" stop-color="rgb(16.157532%, 26.559448%, 43.859863%)" offset="0.539062"/><stop stop-opacity="1" stop-color="rgb(16.181946%, 26.707458%, 44.151306%)" offset="0.546875"/><stop stop-opacity="1" stop-color="rgb(16.20636%, 26.853943%, 44.442749%)" offset="0.554688"/><stop stop-opacity="1" stop-color="rgb(16.230774%, 27.000427%, 44.734192%)" offset="0.5625"/><stop stop-opacity="1" stop-color="rgb(16.255188%, 27.146912%, 45.025635%)" offset="0.570312"/><stop stop-opacity="1" stop-color="rgb(16.279602%, 27.294922%, 45.317078%)" offset="0.578125"/><stop stop-opacity="1" stop-color="rgb(16.304016%, 27.441406%, 45.608521%)" offset="0.585938"/><stop stop-opacity="1" stop-color="rgb(16.326904%, 27.587891%, 45.899963%)" offset="0.59375"/><stop stop-opacity="1" stop-color="rgb(16.351318%, 27.734375%, 46.191406%)" offset="0.601563"/><stop stop-opacity="1" stop-color="rgb(16.375732%, 27.882385%, 46.482849%)" offset="0.609375"/><stop stop-opacity="1" stop-color="rgb(16.400146%, 28.02887%, 46.774292%)" offset="0.617188"/><stop stop-opacity="1" stop-color="rgb(16.424561%, 28.175354%, 47.065735%)" offset="0.625"/><stop stop-opacity="1" stop-color="rgb(16.448975%, 28.321838%, 47.357178%)" offset="0.632812"/><stop stop-opacity="1" stop-color="rgb(16.473389%, 28.469849%, 47.648621%)" offset="0.640625"/><stop stop-opacity="1" stop-color="rgb(16.497803%, 28.616333%, 47.940063%)" offset="0.648438"/><stop stop-opacity="1" stop-color="rgb(16.520691%, 28.762817%, 48.231506%)" offset="0.65625"/><stop stop-opacity="1" stop-color="rgb(16.545105%, 28.909302%, 48.522949%)" offset="0.664063"/><stop stop-opacity="1" stop-color="rgb(16.569519%, 29.057312%, 48.814392%)" offset="0.671875"/><stop stop-opacity="1" stop-color="rgb(16.593933%, 29.203796%, 49.105835%)" offset="0.679688"/><stop stop-opacity="1" stop-color="rgb(16.618347%, 29.350281%, 49.397278%)" offset="0.6875"/><stop stop-opacity="1" stop-color="rgb(16.642761%, 29.496765%, 49.687195%)" offset="0.695313"/><stop stop-opacity="1" stop-color="rgb(16.667175%, 29.644775%, 49.978638%)" offset="0.703125"/><stop stop-opacity="1" stop-color="rgb(16.691589%, 29.79126%, 50.270081%)" offset="0.710938"/><stop stop-opacity="1" stop-color="rgb(16.714478%, 29.937744%, 50.561523%)" offset="0.71875"/><stop stop-opacity="1" stop-color="rgb(16.738892%, 30.084229%, 50.852966%)" offset="0.726562"/><stop stop-opacity="1" stop-color="rgb(16.763306%, 30.232239%, 51.144409%)" offset="0.734375"/><stop stop-opacity="1" stop-color="rgb(16.78772%, 30.378723%, 51.435852%)" offset="0.742188"/><stop stop-opacity="1" stop-color="rgb(16.812134%, 30.525208%, 51.727295%)" offset="0.75"/><stop stop-opacity="1" stop-color="rgb(16.836548%, 30.673218%, 52.018738%)" offset="0.757812"/><stop stop-opacity="1" stop-color="rgb(16.860962%, 30.819702%, 52.310181%)" offset="0.765625"/><stop stop-opacity="1" stop-color="rgb(16.885376%, 30.966187%, 52.601624%)" offset="0.773438"/><stop stop-opacity="1" stop-color="rgb(16.908264%, 31.112671%, 52.893066%)" offset="0.78125"/><stop stop-opacity="1" stop-color="rgb(16.932678%, 31.260681%, 53.184509%)" offset="0.789062"/><stop stop-opacity="1" stop-color="rgb(16.957092%, 31.407166%, 53.475952%)" offset="0.796875"/><stop stop-opacity="1" stop-color="rgb(16.981506%, 31.55365%, 53.767395%)" offset="0.804688"/><stop stop-opacity="1" stop-color="rgb(17.00592%, 31.700134%, 54.058838%)" offset="0.8125"/><stop stop-opacity="1" stop-color="rgb(17.030334%, 31.848145%, 54.350281%)" offset="0.820313"/><stop stop-opacity="1" stop-color="rgb(17.054749%, 31.994629%, 54.641724%)" offset="0.828125"/><stop stop-opacity="1" stop-color="rgb(17.079163%, 32.141113%, 54.933167%)" offset="0.835938"/><stop stop-opacity="1" stop-color="rgb(17.102051%, 32.287598%, 55.224609%)" offset="0.84375"/><stop stop-opacity="1" stop-color="rgb(17.126465%, 32.435608%, 55.516052%)" offset="0.851562"/><stop stop-opacity="1" stop-color="rgb(17.150879%, 32.582092%, 55.807495%)" offset="0.859375"/><stop stop-opacity="1" stop-color="rgb(17.175293%, 32.728577%, 56.098938%)" offset="0.867188"/><stop stop-opacity="1" stop-color="rgb(17.199707%, 32.875061%, 56.390381%)" offset="0.875"/><stop stop-opacity="1" stop-color="rgb(17.224121%, 33.023071%, 56.681824%)" offset="0.882812"/><stop stop-opacity="1" stop-color="rgb(17.248535%, 33.169556%, 56.973267%)" offset="0.890625"/><stop stop-opacity="1" stop-color="rgb(17.271423%, 33.31604%, 57.264709%)" offset="0.898438"/><stop stop-opacity="1" stop-color="rgb(17.295837%, 33.462524%, 57.556152%)" offset="0.90625"/><stop stop-opacity="1" stop-color="rgb(17.320251%, 33.610535%, 57.847595%)" offset="0.914062"/><stop stop-opacity="1" stop-color="rgb(17.344666%, 33.757019%, 58.139038%)" offset="0.921875"/><stop stop-opacity="1" stop-color="rgb(17.36908%, 33.903503%, 58.430481%)" offset="0.929688"/><stop stop-opacity="1" stop-color="rgb(17.393494%, 34.049988%, 58.721924%)" offset="0.9375"/><stop stop-opacity="1" stop-color="rgb(17.417908%, 34.197998%, 59.013367%)" offset="0.945312"/><stop stop-opacity="1" stop-color="rgb(17.442322%, 34.344482%, 59.30481%)" offset="0.953125"/><stop stop-opacity="1" stop-color="rgb(17.46521%, 34.490967%, 59.596252%)" offset="0.960938"/><stop stop-opacity="1" stop-color="rgb(17.489624%, 34.637451%, 59.887695%)" offset="0.96875"/><stop stop-opacity="1" stop-color="rgb(17.514038%, 34.785461%, 60.179138%)" offset="0.976562"/><stop stop-opacity="1" stop-color="rgb(17.538452%, 34.931946%, 60.470581%)" offset="0.984375"/><stop stop-opacity="1" stop-color="rgb(17.562866%, 35.07843%, 60.762024%)" offset="0.992188"/><stop stop-opacity="1" stop-color="rgb(17.58728%, 35.224915%, 61.053467%)" offset="1"/></linearGradient></defs><g clip-path="url(#2dfbc4707a)"><rect x="-37.5" fill="url(#8b712a7c06)" width="450" y="-37.499999" height="449.999989"/></g><g fill="#ffffff" fill-opacity="0.4"><g transform="translate(32.152078, 257.239583)"><g><path d="M 37.734375 1.3125 C 31.253906 1.3125 25.375 0.0507812 20.09375 -2.46875 C 14.820312 -5 10.675781 -8.707031 7.65625 -13.59375 C 4.632812 -18.476562 3.125 -24.382812 3.125 -31.3125 L 3.125 -66.734375 L 30.984375 -66.734375 L 30.984375 -32.953125 C 30.984375 -30.429688 31.503906 -28.425781 32.546875 -26.9375 C 33.585938 -25.457031 35.207031 -24.71875 37.40625 -24.71875 C 39.488281 -24.71875 41.050781 -25.40625 42.09375 -26.78125 C 43.144531 -28.15625 43.671875 -30.101562 43.671875 -32.625 L 43.671875 -141.546875 L 72.171875 -141.546875 L 72.171875 -35.421875 C 72.171875 -28.066406 70.710938 -21.613281 67.796875 -16.0625 C 64.890625 -10.519531 60.828125 -6.238281 55.609375 -3.21875 C 50.390625 -0.195312 44.429688 1.3125 37.734375 1.3125 Z M 37.734375 1.3125 "/></g></g></g><g fill="#ffffff" fill-opacity="0.4"><g transform="translate(151.940921, 257.239583)"><g><path d="M 39.875 1.3125 C 27.019531 1.3125 17.734375 -1.867188 12.015625 -8.234375 C 6.304688 -14.609375 3.453125 -24.878906 3.453125 -39.046875 L 3.453125 -52.890625 L 31.3125 -52.890625 L 31.3125 -35.265625 C 31.3125 -28.234375 33.5625 -24.71875 38.0625 -24.71875 C 40.59375 -24.71875 42.351562 -25.457031 43.34375 -26.9375 C 44.332031 -28.425781 44.828125 -30.925781 44.828125 -34.4375 C 44.828125 -39.050781 44.273438 -42.867188 43.171875 -45.890625 C 42.078125 -48.910156 40.675781 -51.4375 38.96875 -53.46875 C 37.269531 -55.5 34.222656 -58.660156 29.828125 -62.953125 L 17.625 -75.140625 C 8.175781 -84.367188 3.453125 -94.585938 3.453125 -105.796875 C 3.453125 -117.878906 6.226562 -127.078125 11.78125 -133.390625 C 17.332031 -139.703125 25.4375 -142.859375 36.09375 -142.859375 C 48.832031 -142.859375 58.003906 -139.476562 63.609375 -132.71875 C 69.210938 -125.96875 72.015625 -115.398438 72.015625 -101.015625 L 43.171875 -101.015625 L 43.015625 -110.734375 C 43.015625 -112.597656 42.488281 -114.078125 41.4375 -115.171875 C 40.394531 -116.273438 38.941406 -116.828125 37.078125 -116.828125 C 34.878906 -116.828125 33.226562 -116.222656 32.125 -115.015625 C 31.03125 -113.804688 30.484375 -112.160156 30.484375 -110.078125 C 30.484375 -105.460938 33.117188 -100.679688 38.390625 -95.734375 L 54.875 -79.921875 C 58.71875 -76.179688 61.898438 -72.632812 64.421875 -69.28125 C 66.953125 -65.9375 68.984375 -61.984375 70.515625 -57.421875 C 72.054688 -52.867188 72.828125 -47.460938 72.828125 -41.203125 C 72.828125 -27.242188 70.273438 -16.664062 65.171875 -9.46875 C 60.066406 -2.28125 51.632812 1.3125 39.875 1.3125 Z M 39.875 1.3125 "/></g></g></g><g fill="#ffffff" fill-opacity="0.4"><g transform="translate(270.905965, 257.239583)"><g><path d="M 6.265625 -141.546875 L 45.3125 -141.546875 C 55.414062 -141.546875 62.992188 -138.742188 68.046875 -133.140625 C 73.109375 -127.535156 75.691406 -119.242188 75.796875 -108.265625 L 76.125 -42.015625 C 76.238281 -28.066406 73.820312 -17.578125 68.875 -10.546875 C 63.9375 -3.515625 55.753906 0 44.328125 0 L 6.265625 0 Z M 39.71875 -25.046875 C 44.875 -25.046875 47.453125 -27.570312 47.453125 -32.625 L 47.453125 -105.625 C 47.453125 -108.8125 47.203125 -111.203125 46.703125 -112.796875 C 46.210938 -114.390625 45.304688 -115.457031 43.984375 -116 C 42.671875 -116.550781 40.644531 -116.828125 37.90625 -116.828125 L 34.765625 -116.828125 L 34.765625 -25.046875 Z M 39.71875 -25.046875 "/></g></g></g><g fill="#ffffff" fill-opacity="1"><g transform="translate(27.491066, 252.578577)"><g><path d="M 37.734375 1.3125 C 31.253906 1.3125 25.375 0.0507812 20.09375 -2.46875 C 14.820312 -5 10.675781 -8.707031 7.65625 -13.59375 C 4.632812 -18.476562 3.125 -24.382812 3.125 -31.3125 L 3.125 -66.734375 L 30.984375 -66.734375 L 30.984375 -32.953125 C 30.984375 -30.429688 31.503906 -28.425781 32.546875 -26.9375 C 33.585938 -25.457031 35.207031 -24.71875 37.40625 -24.71875 C 39.488281 -24.71875 41.050781 -25.40625 42.09375 -26.78125 C 43.144531 -28.15625 43.671875 -30.101562 43.671875 -32.625 L 43.671875 -141.546875 L 72.171875 -141.546875 L 72.171875 -35.421875 C 72.171875 -28.066406 70.710938 -21.613281 67.796875 -16.0625 C 64.890625 -10.519531 60.828125 -6.238281 55.609375 -3.21875 C 50.390625 -0.195312 44.429688 1.3125 37.734375 1.3125 Z M 37.734375 1.3125 "/></g></g></g><g fill="#ffffff" fill-opacity="1"><g transform="translate(147.279909, 252.578577)"><g><path d="M 39.875 1.3125 C 27.019531 1.3125 17.734375 -1.867188 12.015625 -8.234375 C 6.304688 -14.609375 3.453125 -24.878906 3.453125 -39.046875 L 3.453125 -52.890625 L 31.3125 -52.890625 L 31.3125 -35.265625 C 31.3125 -28.234375 33.5625 -24.71875 38.0625 -24.71875 C 40.59375 -24.71875 42.351562 -25.457031 43.34375 -26.9375 C 44.332031 -28.425781 44.828125 -30.925781 44.828125 -34.4375 C 44.828125 -39.050781 44.273438 -42.867188 43.171875 -45.890625 C 42.078125 -48.910156 40.675781 -51.4375 38.96875 -53.46875 C 37.269531 -55.5 34.222656 -58.660156 29.828125 -62.953125 L 17.625 -75.140625 C 8.175781 -84.367188 3.453125 -94.585938 3.453125 -105.796875 C 3.453125 -117.878906 6.226562 -127.078125 11.78125 -133.390625 C 17.332031 -139.703125 25.4375 -142.859375 36.09375 -142.859375 C 48.832031 -142.859375 58.003906 -139.476562 63.609375 -132.71875 C 69.210938 -125.96875 72.015625 -115.398438 72.015625 -101.015625 L 43.171875 -101.015625 L 43.015625 -110.734375 C 43.015625 -112.597656 42.488281 -114.078125 41.4375 -115.171875 C 40.394531 -116.273438 38.941406 -116.828125 37.078125 -116.828125 C 34.878906 -116.828125 33.226562 -116.222656 32.125 -115.015625 C 31.03125 -113.804688 30.484375 -112.160156 30.484375 -110.078125 C 30.484375 -105.460938 33.117188 -100.679688 38.390625 -95.734375 L 54.875 -79.921875 C 58.71875 -76.179688 61.898438 -72.632812 64.421875 -69.28125 C 66.953125 -65.9375 68.984375 -61.984375 70.515625 -57.421875 C 72.054688 -52.867188 72.828125 -47.460938 72.828125 -41.203125 C 72.828125 -27.242188 70.273438 -16.664062 65.171875 -9.46875 C 60.066406 -2.28125 51.632812 1.3125 39.875 1.3125 Z M 39.875 1.3125 "/></g></g></g><g fill="#ffffff" fill-opacity="1"><g transform="translate(266.244953, 252.578577)"><g><path d="M 6.265625 -141.546875 L 45.3125 -141.546875 C 55.414062 -141.546875 62.992188 -138.742188 68.046875 -133.140625 C 73.109375 -127.535156 75.691406 -119.242188 75.796875 -108.265625 L 76.125 -42.015625 C 76.238281 -28.066406 73.820312 -17.578125 68.875 -10.546875 C 63.9375 -3.515625 55.753906 0 44.328125 0 L 6.265625 0 Z M 39.71875 -25.046875 C 44.875 -25.046875 47.453125 -27.570312 47.453125 -32.625 L 47.453125 -105.625 C 47.453125 -108.8125 47.203125 -111.203125 46.703125 -112.796875 C 46.210938 -114.390625 45.304688 -115.457031 43.984375 -116 C 42.671875 -116.550781 40.644531 -116.828125 37.90625 -116.828125 L 34.765625 -116.828125 L 34.765625 -25.046875 Z M 39.71875 -25.046875 "/></g></g></g></svg>