<svg xmlns="http://www.w3.org/2000/svg" xmlns:xlink="http://www.w3.org/1999/xlink" width="1080" zoomAndPan="magnify" viewBox="0 0 810 809.999993" height="1080" preserveAspectRatio="xMidYMid meet" version="1.0"><defs><g/></defs><g fill="#ffffff" fill-opacity="1"><g transform="translate(297.937489, 397.315634)"><g><path d="M 44.5625 -31.921875 C 44.5625 -26.929688 43.945312 -22.421875 42.71875 -18.390625 C 41.488281 -14.359375 39.632812 -10.898438 37.15625 -8.015625 C 34.6875 -5.128906 31.585938 -2.90625 27.859375 -1.34375 C 24.140625 0.207031 19.804688 0.984375 14.859375 0.984375 C 12.609375 0.984375 10.382812 0.847656 8.1875 0.578125 C 6 0.316406 3.695312 -0.0976562 1.28125 -0.671875 C 1.445312 -2.472656 1.613281 -4.273438 1.78125 -6.078125 C 1.945312 -7.878906 2.109375 -9.679688 2.265625 -11.484375 C 2.390625 -12.460938 2.78125 -13.25 3.4375 -13.84375 C 4.09375 -14.4375 5.035156 -14.734375 6.265625 -14.734375 C 6.953125 -14.734375 7.835938 -14.609375 8.921875 -14.359375 C 10.015625 -14.117188 11.359375 -14 12.953125 -14 C 15.160156 -14 17.082031 -14.304688 18.71875 -14.921875 C 20.351562 -15.535156 21.722656 -16.535156 22.828125 -17.921875 C 23.929688 -19.316406 24.757812 -21.128906 25.3125 -23.359375 C 25.875 -25.585938 26.15625 -28.296875 26.15625 -31.484375 L 26.15625 -89.0625 L 44.5625 -89.0625 Z M 44.5625 -31.921875 "/></g></g></g><g fill="#ffffff" fill-opacity="1"><g transform="translate(350.972303, 397.315634)"><g><path d="M 57.578125 -72 C 57.003906 -71.0625 56.421875 -70.375 55.828125 -69.9375 C 55.234375 -69.507812 54.46875 -69.296875 53.53125 -69.296875 C 52.625 -69.296875 51.648438 -69.613281 50.609375 -70.25 C 49.566406 -70.882812 48.347656 -71.566406 46.953125 -72.296875 C 45.566406 -73.035156 43.972656 -73.722656 42.171875 -74.359375 C 40.367188 -74.992188 38.257812 -75.3125 35.84375 -75.3125 C 31.59375 -75.3125 28.398438 -74.359375 26.265625 -72.453125 C 24.140625 -70.554688 23.078125 -68.070312 23.078125 -65 C 23.078125 -63.039062 23.660156 -61.414062 24.828125 -60.125 C 25.992188 -58.832031 27.523438 -57.71875 29.421875 -56.78125 C 31.328125 -55.84375 33.488281 -55.003906 35.90625 -54.265625 C 38.320312 -53.523438 40.796875 -52.710938 43.328125 -51.828125 C 45.867188 -50.953125 48.347656 -49.921875 50.765625 -48.734375 C 53.179688 -47.546875 55.335938 -46.050781 57.234375 -44.25 C 59.140625 -42.457031 60.675781 -40.257812 61.84375 -37.65625 C 63.007812 -35.0625 63.59375 -31.898438 63.59375 -28.171875 C 63.59375 -24.117188 62.882812 -20.320312 61.46875 -16.78125 C 60.0625 -13.25 58.023438 -10.160156 55.359375 -7.515625 C 52.703125 -4.878906 49.421875 -2.800781 45.515625 -1.28125 C 41.609375 0.226562 37.175781 0.984375 32.21875 0.984375 C 29.394531 0.984375 26.582031 0.695312 23.78125 0.125 C 20.976562 -0.445312 18.273438 -1.242188 15.671875 -2.265625 C 13.078125 -3.296875 10.632812 -4.523438 8.34375 -5.953125 C 6.050781 -7.390625 4.046875 -8.984375 2.328125 -10.734375 L 7.734375 -19.453125 C 8.179688 -20.109375 8.773438 -20.648438 9.515625 -21.078125 C 10.253906 -21.515625 11.03125 -21.734375 11.84375 -21.734375 C 12.945312 -21.734375 14.113281 -21.320312 15.34375 -20.5 C 16.570312 -19.6875 17.984375 -18.785156 19.578125 -17.796875 C 21.171875 -16.816406 23.019531 -15.914062 25.125 -15.09375 C 27.238281 -14.28125 29.769531 -13.875 32.71875 -13.875 C 37.007812 -13.875 40.332031 -14.851562 42.6875 -16.8125 C 45.039062 -18.78125 46.21875 -21.707031 46.21875 -25.59375 C 46.21875 -27.84375 45.632812 -29.660156 44.46875 -31.046875 C 43.300781 -32.441406 41.773438 -33.609375 39.890625 -34.546875 C 38.015625 -35.492188 35.867188 -36.304688 33.453125 -36.984375 C 31.035156 -37.660156 28.554688 -38.40625 26.015625 -39.21875 C 23.484375 -40.039062 21.007812 -41.023438 18.59375 -42.171875 C 16.1875 -43.316406 14.039062 -44.828125 12.15625 -46.703125 C 10.269531 -48.585938 8.742188 -50.921875 7.578125 -53.703125 C 6.410156 -56.492188 5.828125 -59.953125 5.828125 -64.078125 C 5.828125 -67.398438 6.484375 -70.613281 7.796875 -73.71875 C 9.109375 -76.832031 11.03125 -79.59375 13.5625 -82 C 16.101562 -84.414062 19.222656 -86.359375 22.921875 -87.828125 C 26.628906 -89.304688 30.875 -90.046875 35.65625 -90.046875 C 41.019531 -90.046875 45.984375 -89.21875 50.546875 -87.5625 C 55.109375 -85.90625 58.96875 -83.601562 62.125 -80.65625 Z M 57.578125 -72 "/></g></g></g><g fill="#ffffff" fill-opacity="1"><g transform="translate(418.616243, 397.315634)"><g><path d="M 89.1875 -44.5625 C 89.1875 -38.050781 88.09375 -32.066406 85.90625 -26.609375 C 83.71875 -21.148438 80.628906 -16.453125 76.640625 -12.515625 C 72.648438 -8.585938 67.847656 -5.519531 62.234375 -3.3125 C 56.628906 -1.101562 50.410156 0 43.578125 0 L 9.328125 0 L 9.328125 -89.0625 L 43.578125 -89.0625 C 50.410156 -89.0625 56.628906 -87.957031 62.234375 -85.75 C 67.847656 -83.539062 72.648438 -80.460938 76.640625 -76.515625 C 80.628906 -72.566406 83.71875 -67.867188 85.90625 -62.421875 C 88.09375 -56.984375 89.1875 -51.03125 89.1875 -44.5625 Z M 70.28125 -44.5625 C 70.28125 -49.226562 69.664062 -53.421875 68.4375 -57.140625 C 67.207031 -60.867188 65.445312 -64.019531 63.15625 -66.59375 C 60.863281 -69.175781 58.070312 -71.160156 54.78125 -72.546875 C 51.488281 -73.941406 47.753906 -74.640625 43.578125 -74.640625 L 27.875 -74.640625 L 27.875 -14.421875 L 43.578125 -14.421875 C 47.753906 -14.421875 51.488281 -15.101562 54.78125 -16.46875 C 58.070312 -17.84375 60.863281 -19.828125 63.15625 -22.421875 C 65.445312 -25.023438 67.207031 -28.1875 68.4375 -31.90625 C 69.664062 -35.632812 70.28125 -39.851562 70.28125 -44.5625 Z M 70.28125 -44.5625 "/></g></g></g><g fill="#ffffff" fill-opacity="1"><g transform="translate(336.612477, 512.529042)"><g><path d="M 9.34375 -35.171875 C 9.613281 -35.171875 9.84375 -35.160156 10.03125 -35.140625 C 10.21875 -35.117188 10.382812 -35.070312 10.53125 -35 C 10.675781 -34.925781 10.804688 -34.820312 10.921875 -34.6875 C 11.035156 -34.5625 11.15625 -34.382812 11.28125 -34.15625 L 24.984375 -10.140625 C 25.015625 -10.609375 25.050781 -11.066406 25.09375 -11.515625 C 25.132812 -11.960938 25.179688 -12.378906 25.234375 -12.765625 L 27.984375 -35.171875 L 33.546875 -35.171875 L 29.1875 0 L 25.953125 0 C 25.472656 0 25.0625 -0.078125 24.71875 -0.234375 C 24.375 -0.390625 24.085938 -0.675781 23.859375 -1.09375 L 10.234375 -25.109375 C 10.203125 -24.710938 10.171875 -24.332031 10.140625 -23.96875 C 10.109375 -23.601562 10.078125 -23.257812 10.046875 -22.9375 L 7.28125 0 L 1.703125 0 L 6.03125 -35.171875 Z M 9.34375 -35.171875 "/></g></g></g><g fill="#ffffff" fill-opacity="1"><g transform="translate(372.561243, 512.529042)"><g><path d="M 26.546875 -35.171875 L 25.90625 -30.140625 L 11.75 -30.140625 L 10.53125 -20.140625 L 21.65625 -20.140625 L 21.046875 -15.296875 L 9.921875 -15.296875 L 8.65625 -5.03125 L 22.875 -5.03125 L 22.234375 0 L 1.703125 0 L 6.03125 -35.171875 Z M 26.546875 -35.171875 "/></g></g></g><g fill="#ffffff" fill-opacity="1"><g transform="translate(400.21611, 512.529042)"><g><path d="M 3.109375 -35.171875 L 8.078125 -35.171875 C 8.628906 -35.171875 9.070312 -35.035156 9.40625 -34.765625 C 9.738281 -34.503906 9.9375 -34.164062 10 -33.75 L 13.09375 -12.171875 C 13.164062 -11.648438 13.210938 -11.085938 13.234375 -10.484375 C 13.265625 -9.878906 13.296875 -9.25 13.328125 -8.59375 C 13.753906 -9.914062 14.1875 -11.109375 14.625 -12.171875 L 23.375 -33.75 C 23.519531 -34.101562 23.800781 -34.425781 24.21875 -34.71875 C 24.632812 -35.019531 25.101562 -35.171875 25.625 -35.171875 L 27.078125 -35.171875 C 27.628906 -35.171875 28.070312 -35.035156 28.40625 -34.765625 C 28.75 -34.503906 28.960938 -34.164062 29.046875 -33.75 L 32.546875 -12.171875 C 32.628906 -11.648438 32.707031 -11.097656 32.78125 -10.515625 C 32.851562 -9.929688 32.90625 -9.320312 32.9375 -8.6875 C 33.113281 -9.320312 33.289062 -9.929688 33.46875 -10.515625 C 33.65625 -11.109375 33.84375 -11.660156 34.03125 -12.171875 L 42.375 -33.75 C 42.519531 -34.113281 42.804688 -34.441406 43.234375 -34.734375 C 43.671875 -35.023438 44.148438 -35.171875 44.671875 -35.171875 L 49.65625 -35.171875 L 35.28125 0 L 29.5625 0 L 25.59375 -24.375 C 25.539062 -24.6875 25.484375 -25.023438 25.421875 -25.390625 C 25.367188 -25.753906 25.328125 -26.140625 25.296875 -26.546875 C 25.171875 -26.140625 25.035156 -25.753906 24.890625 -25.390625 C 24.753906 -25.023438 24.625 -24.6875 24.5 -24.375 L 14.546875 0 L 8.859375 0 Z M 3.109375 -35.171875 "/></g></g></g><g fill="#ffffff" fill-opacity="1"><g transform="translate(449.323226, 512.529042)"><g><path d="M 22.75 -28.859375 C 22.519531 -28.523438 22.289062 -28.28125 22.0625 -28.125 C 21.832031 -27.976562 21.554688 -27.90625 21.234375 -27.90625 C 20.910156 -27.90625 20.578125 -28.035156 20.234375 -28.296875 C 19.898438 -28.554688 19.492188 -28.84375 19.015625 -29.15625 C 18.546875 -29.46875 17.988281 -29.753906 17.34375 -30.015625 C 16.707031 -30.273438 15.9375 -30.40625 15.03125 -30.40625 C 14.144531 -30.40625 13.359375 -30.273438 12.671875 -30.015625 C 11.992188 -29.753906 11.421875 -29.394531 10.953125 -28.9375 C 10.492188 -28.488281 10.144531 -27.957031 9.90625 -27.34375 C 9.675781 -26.726562 9.5625 -26.0625 9.5625 -25.34375 C 9.5625 -24.601562 9.75 -23.984375 10.125 -23.484375 C 10.507812 -22.992188 11.007812 -22.5625 11.625 -22.1875 C 12.238281 -21.8125 12.941406 -21.476562 13.734375 -21.1875 C 14.535156 -20.894531 15.34375 -20.585938 16.15625 -20.265625 C 16.976562 -19.941406 17.785156 -19.566406 18.578125 -19.140625 C 19.378906 -18.722656 20.085938 -18.207031 20.703125 -17.59375 C 21.316406 -16.976562 21.8125 -16.234375 22.1875 -15.359375 C 22.570312 -14.492188 22.765625 -13.445312 22.765625 -12.21875 C 22.765625 -10.5 22.46875 -8.875 21.875 -7.34375 C 21.289062 -5.820312 20.441406 -4.488281 19.328125 -3.34375 C 18.210938 -2.195312 16.863281 -1.285156 15.28125 -0.609375 C 13.707031 0.0546875 11.929688 0.390625 9.953125 0.390625 C 8.929688 0.390625 7.925781 0.28125 6.9375 0.0625 C 5.945312 -0.15625 5.015625 -0.46875 4.140625 -0.875 C 3.265625 -1.28125 2.453125 -1.765625 1.703125 -2.328125 C 0.953125 -2.898438 0.300781 -3.535156 -0.25 -4.234375 L 2 -7.25 C 2.175781 -7.476562 2.398438 -7.664062 2.671875 -7.8125 C 2.953125 -7.957031 3.226562 -8.03125 3.5 -8.03125 C 3.757812 -8.03125 4.015625 -7.945312 4.265625 -7.78125 C 4.515625 -7.625 4.789062 -7.425781 5.09375 -7.1875 C 5.394531 -6.957031 5.71875 -6.695312 6.0625 -6.40625 C 6.414062 -6.125 6.816406 -5.863281 7.265625 -5.625 C 7.722656 -5.394531 8.234375 -5.195312 8.796875 -5.03125 C 9.367188 -4.875 10.03125 -4.796875 10.78125 -4.796875 C 12.613281 -4.796875 14.046875 -5.3125 15.078125 -6.34375 C 16.117188 -7.382812 16.640625 -8.820312 16.640625 -10.65625 C 16.640625 -11.46875 16.453125 -12.128906 16.078125 -12.640625 C 15.703125 -13.160156 15.207031 -13.597656 14.59375 -13.953125 C 13.976562 -14.316406 13.28125 -14.628906 12.5 -14.890625 C 11.726562 -15.160156 10.929688 -15.445312 10.109375 -15.75 C 9.285156 -16.050781 8.484375 -16.398438 7.703125 -16.796875 C 6.929688 -17.191406 6.238281 -17.703125 5.625 -18.328125 C 5.007812 -18.953125 4.515625 -19.71875 4.140625 -20.625 C 3.765625 -21.539062 3.578125 -22.660156 3.578125 -23.984375 C 3.578125 -25.492188 3.851562 -26.945312 4.40625 -28.34375 C 4.96875 -29.738281 5.769531 -30.96875 6.8125 -32.03125 C 7.851562 -33.09375 9.113281 -33.941406 10.59375 -34.578125 C 12.082031 -35.222656 13.757812 -35.546875 15.625 -35.546875 C 16.570312 -35.546875 17.488281 -35.445312 18.375 -35.25 C 19.257812 -35.050781 20.082031 -34.773438 20.84375 -34.421875 C 21.613281 -34.066406 22.316406 -33.640625 22.953125 -33.140625 C 23.597656 -32.648438 24.15625 -32.101562 24.625 -31.5 Z M 22.75 -28.859375 "/></g></g></g></svg>