<svg xmlns="http://www.w3.org/2000/svg" xmlns:xlink="http://www.w3.org/1999/xlink" width="500" zoomAndPan="magnify" viewBox="0 0 375 374.999991" height="500" preserveAspectRatio="xMidYMid meet" version="1.0"><defs><g/></defs><rect x="-37.5" width="450" fill="#ffffff" y="-37.499999" height="449.999989" fill-opacity="1"/><rect x="-37.5" width="450" fill="#ffffff" y="-37.499999" height="449.999989" fill-opacity="1"/><g fill="#ffffff" fill-opacity="0.502"><g transform="translate(13.280955, 268.562293)"><g><path d="M 81.46875 -160.390625 L 81.46875 -45.296875 C 81.46875 -29.617188 77.15625 -17.660156 68.53125 -9.421875 C 59.914062 -1.191406 47.570312 2.921875 31.5 2.921875 C 27.21875 2.921875 23.003906 2.398438 18.859375 1.359375 C 14.710938 0.328125 11.210938 -0.929688 8.359375 -2.421875 C 5.503906 -3.921875 2.941406 -5.445312 0.671875 -7 C -1.585938 -8.550781 -3.238281 -9.847656 -4.28125 -10.890625 L -6.03125 -12.4375 L 5.640625 -42.96875 C 13.285156 -35.707031 20.21875 -32.078125 26.4375 -32.078125 C 32.007812 -32.078125 36.476562 -33.921875 39.84375 -37.609375 C 43.21875 -41.304688 44.90625 -46.976562 44.90625 -54.625 L 44.90625 -160.390625 Z M 81.46875 -160.390625 "/></g></g></g><g fill="" fill-opacity="0.502"><g transform="translate(104.460533, 268.562293)"><g><path d="M 70.765625 -163.3125 C 79.453125 -163.3125 87.941406 -162.046875 96.234375 -159.515625 C 104.535156 -156.992188 110.691406 -154.5 114.703125 -152.03125 L 120.546875 -148.15625 L 105.765625 -118.984375 C 104.597656 -119.765625 102.976562 -120.769531 100.90625 -122 C 98.832031 -123.226562 94.941406 -124.878906 89.234375 -126.953125 C 83.535156 -129.023438 78.222656 -130.0625 73.296875 -130.0625 C 67.203125 -130.0625 62.503906 -128.765625 59.203125 -126.171875 C 55.898438 -123.585938 54.25 -120.09375 54.25 -115.6875 C 54.25 -113.476562 55.023438 -111.429688 56.578125 -109.546875 C 58.128906 -107.671875 60.785156 -105.664062 64.546875 -103.53125 C 68.304688 -101.394531 71.609375 -99.675781 74.453125 -98.375 C 77.304688 -97.082031 81.71875 -95.140625 87.6875 -92.546875 C 98.050781 -88.140625 106.894531 -82.144531 114.21875 -74.5625 C 121.539062 -66.976562 125.203125 -58.390625 125.203125 -48.796875 C 125.203125 -39.597656 123.550781 -31.5625 120.25 -24.6875 C 116.945312 -17.820312 112.410156 -12.441406 106.640625 -8.546875 C 100.867188 -4.660156 94.484375 -1.78125 87.484375 0.09375 C 80.484375 1.976562 72.90625 2.921875 64.75 2.921875 C 57.75 2.921875 50.878906 2.207031 44.140625 0.78125 C 37.398438 -0.644531 31.757812 -2.425781 27.21875 -4.5625 C 22.6875 -6.707031 18.601562 -8.816406 14.96875 -10.890625 C 11.34375 -12.960938 8.6875 -14.710938 7 -16.140625 L 4.46875 -18.28125 L 22.75 -49 C 24.300781 -47.695312 26.4375 -46.039062 29.15625 -44.03125 C 31.882812 -42.019531 36.710938 -39.328125 43.640625 -35.953125 C 50.578125 -32.585938 56.703125 -30.90625 62.015625 -30.90625 C 77.441406 -30.90625 85.15625 -36.15625 85.15625 -46.65625 C 85.15625 -48.863281 84.601562 -50.90625 83.5 -52.78125 C 82.40625 -54.664062 80.460938 -56.546875 77.671875 -58.421875 C 74.878906 -60.304688 72.414062 -61.796875 70.28125 -62.890625 C 68.144531 -63.992188 64.644531 -65.679688 59.78125 -67.953125 C 54.925781 -70.222656 51.332031 -71.941406 49 -73.109375 C 39.269531 -77.898438 31.75 -83.890625 26.4375 -91.078125 C 21.125 -98.273438 18.46875 -106.019531 18.46875 -114.3125 C 18.46875 -128.707031 23.78125 -140.472656 34.40625 -149.609375 C 45.039062 -158.742188 57.160156 -163.3125 70.765625 -163.3125 Z M 70.765625 -163.3125 "/></g></g></g><g fill="" fill-opacity="0.502"><g transform="translate(235.105909, 268.562293)"><g><path d="M 11.671875 -160.390625 L 58.125 -160.390625 C 80.425781 -160.390625 99.484375 -152.773438 115.296875 -137.546875 C 131.109375 -122.316406 139.015625 -103.234375 139.015625 -80.296875 C 139.015625 -57.222656 131.140625 -38.070312 115.390625 -22.84375 C 99.640625 -7.613281 80.550781 0 58.125 0 L 11.671875 0 Z M 48.21875 -32.65625 L 53.859375 -32.65625 C 67.203125 -32.65625 78.117188 -37.160156 86.609375 -46.171875 C 95.097656 -55.179688 99.410156 -66.492188 99.546875 -80.109375 C 99.546875 -93.710938 95.300781 -105.050781 86.8125 -114.125 C 78.320312 -123.195312 67.335938 -127.734375 53.859375 -127.734375 L 48.21875 -127.734375 Z M 48.21875 -32.65625 "/></g></g></g><g fill="#000000" fill-opacity="1"><g transform="translate(9.672173, 264.953505)"><g><path d="M 81.46875 -160.390625 L 81.46875 -45.296875 C 81.46875 -29.617188 77.15625 -17.660156 68.53125 -9.421875 C 59.914062 -1.191406 47.570312 2.921875 31.5 2.921875 C 27.21875 2.921875 23.003906 2.398438 18.859375 1.359375 C 14.710938 0.328125 11.210938 -0.929688 8.359375 -2.421875 C 5.503906 -3.921875 2.941406 -5.445312 0.671875 -7 C -1.585938 -8.550781 -3.238281 -9.847656 -4.28125 -10.890625 L -6.03125 -12.4375 L 5.640625 -42.96875 C 13.285156 -35.707031 20.21875 -32.078125 26.4375 -32.078125 C 32.007812 -32.078125 36.476562 -33.921875 39.84375 -37.609375 C 43.21875 -41.304688 44.90625 -46.976562 44.90625 -54.625 L 44.90625 -160.390625 Z M 81.46875 -160.390625 "/></g></g></g><g fill="#000000" fill-opacity="1"><g transform="translate(100.85175, 264.953505)"><g><path d="M 70.765625 -163.3125 C 79.453125 -163.3125 87.941406 -162.046875 96.234375 -159.515625 C 104.535156 -156.992188 110.691406 -154.5 114.703125 -152.03125 L 120.546875 -148.15625 L 105.765625 -118.984375 C 104.597656 -119.765625 102.976562 -120.769531 100.90625 -122 C 98.832031 -123.226562 94.941406 -124.878906 89.234375 -126.953125 C 83.535156 -129.023438 78.222656 -130.0625 73.296875 -130.0625 C 67.203125 -130.0625 62.503906 -128.765625 59.203125 -126.171875 C 55.898438 -123.585938 54.25 -120.09375 54.25 -115.6875 C 54.25 -113.476562 55.023438 -111.429688 56.578125 -109.546875 C 58.128906 -107.671875 60.785156 -105.664062 64.546875 -103.53125 C 68.304688 -101.394531 71.609375 -99.675781 74.453125 -98.375 C 77.304688 -97.082031 81.71875 -95.140625 87.6875 -92.546875 C 98.050781 -88.140625 106.894531 -82.144531 114.21875 -74.5625 C 121.539062 -66.976562 125.203125 -58.390625 125.203125 -48.796875 C 125.203125 -39.597656 123.550781 -31.5625 120.25 -24.6875 C 116.945312 -17.820312 112.410156 -12.441406 106.640625 -8.546875 C 100.867188 -4.660156 94.484375 -1.78125 87.484375 0.09375 C 80.484375 1.976562 72.90625 2.921875 64.75 2.921875 C 57.75 2.921875 50.878906 2.207031 44.140625 0.78125 C 37.398438 -0.644531 31.757812 -2.425781 27.21875 -4.5625 C 22.6875 -6.707031 18.601562 -8.816406 14.96875 -10.890625 C 11.34375 -12.960938 8.6875 -14.710938 7 -16.140625 L 4.46875 -18.28125 L 22.75 -49 C 24.300781 -47.695312 26.4375 -46.039062 29.15625 -44.03125 C 31.882812 -42.019531 36.710938 -39.328125 43.640625 -35.953125 C 50.578125 -32.585938 56.703125 -30.90625 62.015625 -30.90625 C 77.441406 -30.90625 85.15625 -36.15625 85.15625 -46.65625 C 85.15625 -48.863281 84.601562 -50.90625 83.5 -52.78125 C 82.40625 -54.664062 80.460938 -56.546875 77.671875 -58.421875 C 74.878906 -60.304688 72.414062 -61.796875 70.28125 -62.890625 C 68.144531 -63.992188 64.644531 -65.679688 59.78125 -67.953125 C 54.925781 -70.222656 51.332031 -71.941406 49 -73.109375 C 39.269531 -77.898438 31.75 -83.890625 26.4375 -91.078125 C 21.125 -98.273438 18.46875 -106.019531 18.46875 -114.3125 C 18.46875 -128.707031 23.78125 -140.472656 34.40625 -149.609375 C 45.039062 -158.742188 57.160156 -163.3125 70.765625 -163.3125 Z M 70.765625 -163.3125 "/></g></g></g><g fill="#000000" fill-opacity="1"><g transform="translate(231.497127, 264.953505)"><g><path d="M 11.671875 -160.390625 L 58.125 -160.390625 C 80.425781 -160.390625 99.484375 -152.773438 115.296875 -137.546875 C 131.109375 -122.316406 139.015625 -103.234375 139.015625 -80.296875 C 139.015625 -57.222656 131.140625 -38.070312 115.390625 -22.84375 C 99.640625 -7.613281 80.550781 0 58.125 0 L 11.671875 0 Z M 48.21875 -32.65625 L 53.859375 -32.65625 C 67.203125 -32.65625 78.117188 -37.160156 86.609375 -46.171875 C 95.097656 -55.179688 99.410156 -66.492188 99.546875 -80.109375 C 99.546875 -93.710938 95.300781 -105.050781 86.8125 -114.125 C 78.320312 -123.195312 67.335938 -127.734375 53.859375 -127.734375 L 48.21875 -127.734375 Z M 48.21875 -32.65625 "/></g></g></g></svg>